<svg xmlns="http://www.w3.org/2000/svg" width="695" height="363" viewBox="0 0 695 363"><g fill="none" fill-rule="evenodd"><path fill="#1A1918" d="M4.235 348.098l13.586 12.657V348.67c0-.213.01-.382.03-.506.02-.123.07-.238.16-.345.09-.11.22-.16.39-.16.37 0 .56.33.56 1.01v12.93c0 .56-.15.85-.45.85-.2 0-.45-.14-.75-.42L4.05 349.36v12.165c0 .62-.183.93-.546.93-.24 0-.396-.08-.47-.24-.076-.158-.114-.39-.114-.69v-13.002c0-.548.18-.824.544-.824.222 0 .478.13.77.39"/><path fill="#0A0B09" d="M4.235 348.098l-.18.194 14.032 13.072V348.67c0-.205.008-.365.024-.468l.1-.213c.04-.04.07-.06.19-.07.11.01.12.01.19.11.06.1.11.31.11.63v12.94c0 .26-.04.43-.08.51l-.1.07c-.08 0-.3-.09-.58-.35L3.79 348.75v12.774c0 .285-.047.477-.1.564-.058.08-.074.09-.18.1-.09 0-.147-.02-.177-.03l-.054-.06c-.05-.1-.09-.3-.09-.58v-13c0-.248.04-.406.09-.47.05-.06.07-.08.18-.088.11-.004.32.083.59.33l.17-.196-.18.19.18-.194.18-.2c-.32-.283-.62-.46-.95-.466-.25-.006-.5.115-.63.326-.14.207-.18.46-.18.763v13c0 .323.04.586.14.804.06.127.16.237.29.3.12.065.27.09.41.09.26.007.52-.138.64-.364.13-.222.17-.495.17-.83v-11.56l13.25 12.274c.32.29.61.473.94.48.23.01.47-.144.57-.354.1-.206.14-.454.14-.76v-12.93c0-.362-.05-.65-.18-.886-.12-.237-.38-.397-.65-.39-.22-.002-.45.08-.59.257-.12.138-.19.302-.22.476-.02.145-.03.323-.03.543v11.47L4.41 347.9l-.18.196"/><path fill="#1A1918" d="M25.684 357.13h8.686l-4.343-7.93-4.343 7.93zm-3.666 4.422l7.318-13.215c.15-.283.266-.467.346-.55.08-.085.194-.127.345-.127.124 0 .232.046.325.14.093.092.215.27.365.537l7.332 13.228c.09.168.14.34.14.518 0 .16-.04.283-.13.372-.09.09-.19.133-.33.133-.28 0-.52-.195-.73-.584l-2.26-4.09H25.3l-2.286 4.143c-.186.354-.425.53-.717.53s-.438-.194-.438-.583c0-.107.05-.257.15-.452z"/><path fill="#0A0B09" d="M25.684 357.13v.264h9.133l-4.79-8.746-4.79 8.746h.447v-.265l.232.12 4.11-7.51 3.896 7.11h-8.238v.26l.232.12-.232-.13zm-3.666 4.422l.232.128 7.32-13.216v-.002c.144-.274.263-.454.304-.493v-.01c.02-.02.048-.04.153-.05l.137.06c.06.06.18.22.323.48l7.33 13.23h.002c.07.13.11.26.11.38-.01.11-.03.16-.06.19l-.14.05-.23-.09c-.09-.07-.18-.19-.28-.36l-2.34-4.23h-9.76l-2.36 4.28c-.17.31-.31.38-.49.39-.09-.01-.09-.02-.12-.04-.02-.03-.06-.12-.06-.28 0-.02.03-.15.13-.33l-.23-.13-.23-.13c-.11.21-.19.38-.19.58 0 .22.04.42.16.59.12.17.34.26.54.25.41 0 .75-.28.95-.68l-.23-.12.23.12 2.21-4.01h9.14l2.18 3.95c.11.22.25.39.41.52.15.13.35.2.55.2.19.01.39-.07.52-.21.14-.15.2-.35.2-.56 0-.23-.06-.45-.18-.65l-.23.13.23-.13-7.33-13.23c-.16-.28-.28-.47-.41-.6-.13-.13-.32-.22-.51-.21-.2 0-.4.06-.54.21-.12.13-.23.31-.39.61l.23.12-.24-.13-7.31 13.22.23.13z"/><path fill="#1A1918" d="M56.59 348.15l-.014.127-.053.1-.066.066-.1.047-.113.033-.133.013H48.5v12.937c0 .21-.008.377-.025.498-.018.12-.072.23-.16.34-.088.1-.212.15-.372.15-.38 0-.57-.32-.57-.98v-12.94h-7.63l-.147-.01-.12-.03-.106-.04-.073-.06-.053-.1-.013-.12c0-.33.31-.49.92-.49H55.7c.16 0 .28 0 .358.01.08.01.168.03.266.06.097.03.166.08.206.15.04.07.06.16.06.28"/><path fill="#0A0B09" d="M56.59 348.15l-.264-.026-.008.074-.01.02-.006.005-.04.018-.068.03-.095.01h-7.87v13.2c0 .21-.01.36-.03.46l-.1.2c-.04.04-.07.06-.17.06-.12 0-.14-.02-.2-.11s-.11-.3-.11-.6v-13.21h-7.88l-.11-.01-.08-.02-.05-.02h-.01l-.01-.01-.01-.07-.27.03h.26l.09-.13c.08-.05.28-.09.56-.09H55.7c.157 0 .274 0 .345.01l.013-.26-.016.27.2.04.057.03.23-.13-.24.13.02.15h.26l-.27-.03.26.03h.26c0-.14-.03-.28-.1-.41h-.01c-.08-.14-.22-.23-.36-.27-.12-.03-.23-.06-.33-.06h-.01c-.09 0-.21-.01-.37-.01h-15.5c-.33 0-.6.04-.82.16-.23.11-.38.35-.37.6v.02l.01.14.01.05.08.15.02.04.11.1.03.03.15.06.02.01.14.04.03.01.17.02h7.38v12.67c0 .35.05.64.18.87.13.23.39.38.66.38.22.01.43-.07.57-.24.12-.13.2-.29.23-.47.02-.14.03-.31.03-.53v-12.7h7.36l.15-.01h.03l.14-.04h.02l.12-.06.04-.02.1-.1.03-.03.08-.14.02-.05.02-.19v-.02h-.27"/><path fill="#1A1918" d="M63.11 361.578v-13.042h-4.74c-.48 0-.766-.05-.864-.145-.07-.07-.106-.16-.106-.26l.013-.15.06-.12.08-.08.112-.05.12-.03.146-.02h11.16c.21 0 .36.01.45.02.1.01.19.05.27.12.09.07.14.17.14.32s-.04.25-.13.31c-.08.07-.18.11-.27.12-.09.01-.24.02-.44.02h-4.85v13.04h4.84c.21 0 .36.01.45.02.1.01.19.05.27.11.09.07.14.17.14.31 0 .14-.04.25-.13.31-.08.07-.18.11-.27.11-.09.01-.24.02-.44.02H57.93l-.145-.02-.12-.03-.113-.06-.08-.08-.06-.12-.012-.15c0-.13.05-.23.152-.29.102-.06.202-.1.3-.1.097-.01.243-.01.438-.01h4.82"/><path fill="#0A0B09" d="M63.11 361.578h.266V348.27H58.37c-.23 0-.41-.01-.53-.032l-.132-.032-.023-.01-.02.034.027-.028-.007-.007-.02.035.027-.028.002.002-.03-.08H57.4l.264.024.01-.103.017-.036.02-.02.05-.03.08-.03.12-.02.12-.01h11.01c.2 0 .35 0 .42.01l.14.06c.01.01.03.01.03.1 0 .09-.01.09-.02.1l-.14.06c-.07 0-.22.01-.42.01h-5.12v13.57h5.12c.2 0 .34 0 .42.01l.14.06c.01.01.02.01.02.1 0 .09-.01.09-.02.1l-.14.06h-.01c-.07.01-.21.01-.41.01H58.08l-.123-.01-.117-.02-.08-.03-.05-.02-.018-.02-.016-.04-.01-.1-.263.02h.266l.02-.07.18-.07c.08-.01.22-.01.41-.01h5.08v-.27h-.26v-.27h-4.82c-.2 0-.35 0-.47.01-.15.01-.29.06-.42.14-.18.1-.29.32-.28.52v.02l.01.16v.05l.08.17.02.04.14.14.15.07.02.01.14.04h.01l.17.02h.01l.15.01h11.03c.21 0 .36-.01.47-.02h-.01c.14-.01.28-.08.4-.17.17-.12.24-.33.24-.53s-.07-.41-.24-.53c-.12-.09-.26-.15-.41-.17-.11-.01-.26-.01-.47-.01H64.5v-12.5h4.582c.21 0 .36 0 .47-.01.15-.02.29-.08.41-.17.164-.12.24-.33.236-.52.005-.19-.07-.4-.237-.52-.12-.09-.26-.15-.41-.17-.11-.02-.26-.02-.47-.02H57.91l-.16.02h-.02l-.136.03-.02.01-.136.06-.04.02-.113.11-.03.03-.08.16-.02.04-.016.2v.02c-.01.16.06.33.18.45.13.11.26.15.43.18.17.03.37.04.62.04h4.47v12.78h.26v-.27.27"/><path fill="#1A1918" d="M75.37 349.838c-1.39 1.054-2.086 2.794-2.086 5.22 0 2.425.695 4.166 2.085 5.22 1.39 1.053 3.56 1.58 6.53 1.58 2.96 0 5.14-.527 6.54-1.58 1.39-1.054 2.09-2.795 2.09-5.22 0-2.426-.7-4.166-2.09-5.22-1.4-1.054-3.58-1.58-6.54-1.58-2.97 0-5.15.526-6.54 1.58zm13.924-.57c1.58 1.256 2.37 3.186 2.37 5.79 0 2.602-.79 4.533-2.37 5.79-1.58 1.257-4.043 1.886-7.39 1.886-3.347 0-5.81-.63-7.385-1.886-1.58-1.257-2.37-3.188-2.37-5.79 0-2.604.79-4.534 2.36-5.79 1.57-1.258 4.03-1.887 7.38-1.887 3.35 0 5.81.63 7.39 1.89z"/><path fill="#0A0B09" d="M75.37 349.838l-.16-.212c-1.476 1.117-2.194 2.96-2.19 5.432-.004 2.47.714 4.314 2.19 5.43 1.465 1.108 3.698 1.633 6.693 1.635 2.996-.002 5.23-.527 6.7-1.634 1.48-1.12 2.2-2.96 2.198-5.44.01-2.47-.71-4.32-2.19-5.43-1.47-1.11-3.7-1.63-6.7-1.64-2.99 0-5.23.52-6.69 1.63l.16.21.16.21c1.32-1 3.44-1.53 6.38-1.53s5.07.52 6.38 1.52c1.31.99 1.99 2.62 1.99 5.01 0 2.38-.67 4.01-1.98 5-1.32 1-3.44 1.52-6.38 1.52-2.93 0-5.06-.53-6.37-1.53-1.3-.99-1.98-2.63-1.98-5.01s.68-4.02 1.98-5.01l-.16-.21zm13.924-.57l-.165.206c1.5 1.2 2.26 3.03 2.27 5.584-.01 2.552-.77 4.382-2.27 5.582l.01-.01-.02.01c-1.51 1.2-3.91 1.83-7.23 1.83-3.32 0-5.72-.63-7.22-1.83-1.5-1.2-2.26-3.03-2.27-5.582 0-2.555.76-4.384 2.26-5.584l-.01.006v-.006c1.5-1.2 3.9-1.83 7.22-1.828 3.31 0 5.72.628 7.22 1.828v.006l-.01-.006.16-.207.17-.208c-1.66-1.32-4.18-1.95-7.56-1.95s-5.9.63-7.55 1.94c-1.65 1.31-2.47 3.34-2.46 6-.01 2.65.81 4.68 2.46 5.99h.01l-.01-.01c1.65 1.31 4.17 1.94 7.55 1.94s5.9-.63 7.55-1.95c1.65-1.31 2.47-3.35 2.47-6s-.82-4.68-2.47-6l-.17.21z"/><path fill="#1A1918" d="M96.74 348.098l13.585 12.657V348.67c0-.213.01-.382.027-.506.018-.123.07-.238.16-.345.088-.11.216-.16.384-.16.373 0 .558.33.558 1.01v12.93c0 .56-.15.85-.45.85-.205 0-.458-.14-.758-.42l-13.693-12.68v12.16c0 .62-.182.93-.545.93-.24 0-.396-.08-.47-.24-.077-.16-.114-.39-.114-.69v-13c0-.55.18-.83.544-.83.222 0 .478.13.77.39"/><path fill="#0A0B09" d="M96.74 348.098l-.182.194 14.032 13.072V348.67c0-.205.01-.365.024-.468v.003-.004l.1-.21c.036-.04.066-.06.182-.06.105.01.122.02.187.12.058.11.107.32.106.63v12.94c0 .26-.04.44-.09.52l-.11.07c-.08.01-.3-.08-.58-.34l-14.14-13.1v12.78c0 .29-.05.48-.1.56-.06.09-.08.1-.18.1-.09 0-.15-.01-.18-.03l-.06-.05c-.05-.1-.09-.29-.09-.57v-13.01c-.01-.24.04-.4.09-.47.05-.06.07-.08.18-.08.11 0 .32.09.59.33l.18-.19-.19.19.18-.19.18-.2c-.32-.29-.62-.47-.95-.47-.25-.01-.5.11-.63.33-.14.21-.18.46-.18.77v13c0 .33.03.59.14.81.06.13.16.24.29.3.13.06.27.08.42.08.25.01.51-.13.63-.36.13-.22.17-.49.17-.83V350l13.25 12.27c.32.29.61.477.93.48.24.01.47-.14.57-.35.11-.2.14-.45.14-.76V348.7c0-.36-.05-.65-.18-.88-.12-.236-.38-.396-.65-.39-.22 0-.45.08-.59.26-.12.14-.19.3-.22.475-.02.145-.03.323-.03.543v11.47l-13.1-12.26-.18.2"/><path fill="#1A1918" d="M118.188 357.13h8.686l-4.343-7.93-4.34 7.93zm-3.666 4.422l7.318-13.215c.15-.283.265-.467.346-.55.08-.085.194-.127.345-.127.13 0 .24.046.33.14.1.092.22.27.37.537l7.34 13.228c.1.168.15.34.15.518 0 .16-.04.283-.12.372-.08.09-.19.133-.32.133-.27 0-.51-.195-.73-.584l-2.25-4.09h-9.45l-2.28 4.143c-.18.354-.42.53-.71.53s-.43-.194-.43-.583c0-.107.06-.257.16-.452z"/><path fill="#0A0B09" d="M118.188 357.13v.264h9.133l-4.79-8.746-4.79 8.746h.45v-.265l.23.12 4.11-7.51 3.9 7.11h-8.24v.26l.23.12-.23-.13zm-3.666 4.422l.232.128 7.32-13.216v-.002c.144-.274.263-.454.303-.493v-.01c.022-.02.05-.04.154-.05l.14.06c.06.06.18.22.32.48l7.34 13.23c.08.13.11.26.11.38 0 .11-.02.16-.05.19l-.13.05-.22-.09c-.08-.07-.18-.19-.27-.36l-2.33-4.23h-9.77l-2.36 4.28c-.17.31-.31.38-.48.39-.09-.01-.09-.02-.11-.04-.02-.03-.05-.12-.05-.28 0-.02.03-.15.13-.33l-.23-.13-.23-.13c-.11.21-.19.38-.19.58 0 .22.04.42.17.59.13.17.34.26.54.25.41 0 .75-.28.96-.68l-.23-.12.23.12 2.21-4.01h9.15l2.18 3.95c.12.22.25.39.41.52.16.13.35.21.56.2.19 0 .39-.07.52-.22.15-.15.2-.36.2-.56 0-.22-.06-.44-.18-.65l-.23.14.23-.13-7.33-13.23c-.15-.28-.28-.47-.41-.6-.13-.14-.32-.22-.51-.22s-.39.06-.53.21c-.12.13-.23.32-.39.61l.24.12-.23-.13-7.32 13.22.23.12z"/><path fill="#1A1918" d="M146.158 362.455h-11.993c-.266 0-.423-.022-.47-.066-.05-.05-.074-.19-.074-.43v-13.44c0-.58.21-.87.63-.87.34 0 .51.28.51.86v13.05h11.41c.17 0 .3.04.4.13.1.09.15.19.15.3 0 .12-.05.23-.14.31-.09.08-.23.12-.4.12"/><path fill="#0A0B09" d="M146.158 362.455v-.265h-11.993c-.125 0-.22-.006-.28-.014l-.053-.01-.036.11.076-.084-.04-.027-.036.11.076-.083-.09.097.126-.05-.037-.05-.08.1.13-.05s-.02-.12-.02-.28v-13.44c0-.26.05-.42.11-.5.06-.07.11-.1.26-.11.1.01.1.01.15.08.05.07.09.25.09.51v13.32h11.68c.13 0 .18.03.22.06l.06.11-.05.11c-.04.03-.1.06-.23.06v.53c.21 0 .42-.06.58-.19v-.01c.15-.13.24-.32.24-.52.01-.2-.09-.38-.23-.5-.15-.14-.36-.21-.57-.21h-11.15V348.5c0-.31-.04-.57-.16-.78-.11-.215-.36-.354-.6-.346-.26-.006-.53.106-.68.324-.15.216-.2.486-.2.804v13.44c0 .13.01.236.02.33.02.096.03.185.14.293v-.002c.12.095.2.097.3.117.1.02.21.02.36.02h11.99v-.26"/><path fill="#1A1918" d="M156.903 360.92c-1.638-1.207-2.457-3.162-2.457-5.862s.82-4.656 2.457-5.865c1.638-1.208 4.14-1.812 7.504-1.812 2.3 0 4.515.44 6.64 1.32.266.12.4.29.4.51 0 .11-.04.2-.12.28-.08.08-.182.12-.306.12-.06 0-.14-.02-.25-.06-2.03-.85-4.15-1.27-6.36-1.27-3.14 0-5.4.54-6.77 1.6-1.37 1.07-2.06 2.8-2.06 5.2 0 2.4.69 4.13 2.06 5.2 1.37 1.07 3.63 1.6 6.78 1.6 2.21 0 4.33-.42 6.36-1.27.11-.03.19-.05.24-.05.14 0 .24.04.33.12.09.08.13.17.13.28 0 .21-.14.38-.41.49-2.12.88-4.34 1.32-6.64 1.32-3.36 0-5.86-.6-7.5-1.81"/><path fill="#0A0B09" d="M156.903 360.92l.157-.213c-1.555-1.15-2.345-2.998-2.35-5.65.005-2.65.795-4.5 2.35-5.65l.022-.016-.022.02c1.565-1.15 4.012-1.76 7.347-1.76 2.268 0 4.445.43 6.54 1.3l.1-.24-.105.25c.105.05.165.1.196.13l.043.13-.04.09-.11.04-.15-.04c-2.07-.86-4.22-1.29-6.46-1.29-3.17 0-5.48.53-6.93 1.66-1.45 1.13-2.16 2.97-2.16 5.41 0 2.45.71 4.28 2.16 5.41 1.46 1.13 3.77 1.66 6.94 1.66 2.24 0 4.4-.43 6.47-1.29l-.1-.24.09.25c.1-.03.16-.04.16-.04l.15.05.04.09-.04.11c-.03.04-.1.09-.21.14-2.09.87-4.27 1.3-6.54 1.3-3.33 0-5.78-.6-7.34-1.76l-.02-.01.02.02-.16.21-.16.22c1.71 1.26 4.27 1.87 7.67 1.87 2.33 0 4.58-.44 6.74-1.33.16-.07.3-.16.41-.28.11-.12.17-.29.16-.45.01-.18-.08-.35-.21-.47-.13-.13-.32-.19-.5-.19-.11 0-.2.03-.32.07l-.01.01h-.01c-2 .84-4.09 1.26-6.26 1.26-3.11 0-5.32-.54-6.61-1.55-1.29-1-1.95-2.64-1.95-4.99.01-2.35.67-3.99 1.96-4.99 1.29-1.01 3.5-1.55 6.61-1.54 2.17 0 4.26.42 6.26 1.25.13.05.23.09.36.09.18.01.36-.06.49-.19h.01c.12-.11.2-.29.19-.46 0-.16-.05-.33-.15-.45-.1-.13-.24-.22-.4-.29-2.15-.89-4.4-1.33-6.74-1.33-3.39 0-5.95.61-7.66 1.87l-.02.02.02-.01c-1.72 1.26-2.57 3.33-2.56 6.08 0 2.74.85 4.81 2.57 6.07l.16-.21"/><path fill="#1A1918" d="M188.353 361.99l-.014.186-.08.133-.1.08-.14.04-.15.01h-12.81c-.17 0-.27-.03-.3-.08-.03-.05-.05-.18-.05-.39v-14.03l.04-.18.14-.12c.06-.01.16-.02.29-.02h12.56l.13.01.11.02.11.04.08.06.06.08.03.1.01.14c0 .13-.05.23-.14.29-.1.06-.19.1-.29.11-.11.01-.26.01-.48.01H175.8v5.82h11.42c.46 0 .69.14.69.42 0 .32-.194.48-.593.48h-11.51v6.32H187.4c.21 0 .37.01.47.01.1.01.2.04.29.11.097.06.14.16.14.29"/><path fill="#0A0B09" d="M188.353 361.99l-.265-.02-.01.13-.02.04-.014.01-.064.018-.132.017h-.008l-.008.002-.15.003H175.07l-.136-.01-.006-.002-.05.136.118-.075-.068-.07-.05.13.118-.08-.114.07.127-.05-.02-.03-.12.07.12-.05h-.02l.01-.01h-.02l.01-.01c-.01-.02-.02-.13-.02-.28V347.9h-.27l.25.07.02-.08.07-.057-.16-.21.03.26c.04-.005.14-.01.26-.01h12.55l.1.01.08.02.05.02.02.02.02.01.01.03.01.11.26-.02H188l-.02.07-.163.065c-.09.01-.24.01-.45.01h-11.83v6.35h11.685c.21 0 .338.04.38.07l.05.093c-.003.11-.023.13-.05.16-.03.03-.116.07-.282.07h-11.78v6.85h11.86c.21 0 .36.01.45.01l.17.07.02.07h.27l-.264-.02.265.02h.27c.01-.19-.08-.4-.25-.51-.12-.09-.27-.14-.41-.15-.11-.01-.27-.02-.49-.02H176.1v-5.79h11.25c.23 0 .442-.04.612-.18.17-.13.25-.35.25-.56.004-.21-.114-.44-.3-.54-.186-.11-.4-.14-.66-.15h-11.15v-5.28h11.303c.214 0 .375 0 .492-.01.15-.01.295-.07.42-.15.173-.11.265-.32.26-.51v-.01l-.01-.15v-.03l-.04-.13-.016-.05-.1-.12-.02-.02-.1-.08-.03-.02-.14-.05h-.01l-.13-.03h-.01l-.15-.01h-12.59c-.14 0-.24 0-.33.02l-.07.01-.2.16-.07.06-.07.26-.01.04V362c0 .113.01.207.02.29.02.082.02.147.08.243v.003c.08.115.18.146.26.17.08.02.17.023.27.023h12.62c.11 0 .17 0 .24-.01l-.04-.26.04.26.15-.02.02-.01.16-.05.05-.02.14-.12.04-.03.12-.23.02-.25h-.26"/><path fill="#1A1918" d="M193.32 348.098l13.586 12.657V348.67c0-.213.01-.382.027-.506.018-.123.07-.238.16-.345.088-.11.216-.16.385-.16.372 0 .557.33.557 1.01v12.93c0 .56-.15.85-.45.85-.205 0-.458-.14-.758-.42l-13.693-12.69v12.16c0 .62-.182.93-.545.93-.24 0-.4-.08-.48-.24-.08-.16-.12-.39-.12-.69v-13c0-.55.18-.83.54-.83.22 0 .47.13.77.4"/><path fill="#0A0B09" d="M193.32 348.098l-.18.194 14.03 13.072V348.67c0-.205.01-.365.026-.468v-.005.004l.1-.21c.035-.04.065-.06.182-.06.104.01.12.02.186.12.058.11.107.32.106.63v12.94c0 .26-.04.44-.082.52l-.104.07c-.082.01-.3-.08-.578-.34h.002l-14.14-13.09v12.78c.002.29-.046.48-.1.57-.057.08-.073.09-.18.1-.09 0-.146-.02-.176-.03l-.055-.06c-.05-.1-.088-.3-.087-.58v-13c0-.24.045-.4.092-.47.05-.06.07-.08.187-.08.11 0 .32.09.59.33l.18-.19-.18.2.18-.2.17-.19c-.32-.28-.62-.46-.95-.46-.25-.01-.5.11-.63.32-.14.21-.18.46-.18.77v13c0 .32.03.59.13.81.06.13.16.24.29.3.13.07.27.09.41.09.25.01.51-.13.63-.36.13-.22.17-.49.17-.83V350l13.25 12.278c.32.29.61.48.93.48.23.01.47-.14.57-.35.11-.202.14-.45.14-.76V348.7c0-.36-.05-.65-.18-.884-.12-.24-.38-.4-.65-.39-.22-.002-.45.08-.59.257-.12.14-.19.3-.22.477-.02.15-.03.328-.03.548v11.47l-13.14-12.25-.18.198"/><path fill="#1A1918" d="M227.758 348.15l-.013.127-.053.1-.067.066-.1.047-.112.033-.133.013h-7.61v12.937c0 .21-.01.377-.026.498-.02.12-.072.23-.16.34-.088.1-.213.15-.372.15-.38 0-.57-.32-.57-.98v-12.94h-7.63l-.147-.01-.12-.03-.106-.04-.08-.06-.06-.1-.02-.12c0-.33.3-.49.91-.49h15.55c.15 0 .27 0 .35.01.08.01.16.03.26.06.09.03.16.08.2.15.04.07.06.16.06.28"/><path fill="#0A0B09" d="M227.758 348.15l-.263-.026-.008.074-.01.02-.006.005-.04.02-.06.02-.09.008h-7.86v13.21c0 .21-.01.36-.02.46l-.09.2c-.03.04-.06.06-.17.06-.11 0-.13-.02-.2-.11-.06-.09-.11-.3-.1-.6v-13.21h-7.88l-.11-.01-.07-.02-.05-.02-.01-.01v-.07l-.26.03h.27l.09-.13c.09-.05.28-.09.56-.09h15.55c.16 0 .28 0 .35.01l.01-.26-.01.26.2.04.06.03.23-.13-.23.13.02.15h.27l-.26-.03.26.03h.27c0-.14-.02-.28-.09-.41-.08-.14-.21-.23-.35-.27-.11-.04-.22-.06-.33-.07h-15.94c-.33 0-.59.04-.81.15-.22.11-.37.35-.37.6v.01l.02.14.01.05.08.15.02.04.11.1.03.03.15.07.02.01.14.04.03.01.17.02h7.39v12.67c0 .36.05.64.18.87.13.24.39.39.66.38.22 0 .44-.08.58-.24.12-.13.2-.29.22-.47v-.01c.02-.14.03-.32.03-.54v-12.7h7.36l.14-.01h.03l.14-.04h.02l.12-.06.05-.02.1-.1.03-.03.07-.14.02-.05.02-.18v-.03h-.27"/><path fill="#1A1918" d="M242.022 352.255c0-.354-.024-.675-.073-.963-.05-.287-.14-.547-.25-.776-.12-.23-.24-.437-.38-.62-.14-.18-.32-.337-.55-.47-.23-.133-.46-.247-.68-.345-.22-.09-.5-.18-.85-.24-.34-.06-.67-.12-.97-.16-.31-.04-.68-.07-1.14-.09-.45-.02-.87-.03-1.26-.04h-4.64v7.04h4.98c.69 0 1.29-.02 1.8-.06.51-.04 1.03-.13 1.55-.26s.95-.32 1.29-.55c.33-.23.6-.55.81-.97.21-.41.32-.9.32-1.46zm1.13 0c0 .62-.116 1.17-.346 1.653-.23.484-.525.873-.884 1.17-.358.296-.792.544-1.3.743-.51.2-1.013.34-1.51.42-.494.08-1.02.14-1.58.16l4.888 5.14c.15.15.226.31.226.48 0 .13-.042.23-.126.31-.084.09-.192.13-.325.13-.24 0-.452-.1-.638-.32l-5.326-5.68h-4.96v5c0 .68-.17 1.01-.5 1.01-.41 0-.62-.33-.62-1.01v-13.3c0-.25.02-.4.06-.43.04-.03.18-.05.44-.05h3.85c.76 0 1.36.01 1.81.02.45.01.99.04 1.62.08.63.04 1.13.11 1.5.19.37.08.79.19 1.24.34.46.14.82.33 1.08.56.26.23.52.5.76.82.25.32.42.69.52 1.13.1.44.16.93.16 1.48z"/><path fill="#0A0B09" d="M242.022 352.255h.265c0-.366-.025-.702-.076-1.007v-.007.01c-.05-.31-.14-.59-.27-.85l.01.01c-.12-.24-.25-.46-.4-.66-.16-.21-.37-.39-.63-.54-.24-.14-.47-.25-.7-.36-.24-.1-.54-.19-.9-.26-.34-.06-.67-.12-.98-.16h.01-.01c-.31-.04-.7-.07-1.15-.09-.45-.02-.87-.03-1.26-.04H231v7.57h5.245c.696 0 1.3-.02 1.82-.06.525-.04 1.06-.13 1.6-.27.55-.15 1.008-.34 1.375-.6.37-.26.67-.62.9-1.07.235-.45.347-.99.347-1.59h-.53c0 .54-.1.98-.29 1.35-.196.39-.44.67-.733.88-.298.21-.698.39-1.202.52-.513.14-1.016.22-1.508.26-.5.04-1.093.06-1.78.06h-4.715v-6.51h2.95c.55 0 1.02.01 1.41.01.38.01.79.02 1.24.04.44.02.82.05 1.11.09h.02-.02c.3.04.62.09.95.16.32.06.59.14.78.23.21.09.43.2.65.33h-.01.01c.2.12.36.25.47.4.12.17.24.36.35.58.1.2.18.43.22.7.04.27.07.58.07.92h.27zm1.13 0h-.266c0 .587-.11 1.097-.32 1.54-.217.453-.487.81-.812 1.077l.004-.003h-.005c-.333.27-.742.51-1.23.7-.492.19-.976.33-1.45.4h-.002c-.48.08-1 .13-1.55.15l-.58.03 5.29 5.56h.01c.12.11.15.2.15.29l-.05.12-.13.05c-.15-.01-.28-.06-.44-.23v-.01l-5.41-5.78H231v5.26c0 .31-.045.53-.1.64-.062.1-.066.09-.14.1-.138-.01-.176-.03-.243-.13-.064-.1-.118-.31-.117-.62v-13.29c0-.12.005-.22.012-.27l.008-.05-.156-.05.11.11.046-.07-.156-.05.11.11.002-.01-.112-.11.046.15.066-.05-.112-.11.046.15c.01-.01.136-.02.317-.02h3.852c.75 0 1.35 0 1.8.01.44.01.98.03 1.6.07.62.04 1.11.1 1.46.18.36.08.77.19 1.22.33.43.13.75.31.98.5.24.22.49.48.72.78l.01.01-.01-.02c.21.28.37.62.47 1.02v.01l-.01-.01c.09.41.14.89.14 1.42h.53c0-.57-.05-1.08-.16-1.54-.11-.47-.3-.88-.57-1.23l-.01-.01.01.01c-.26-.33-.52-.61-.79-.86h-.01c-.3-.26-.69-.46-1.17-.61-.46-.15-.88-.26-1.26-.35-.4-.09-.91-.15-1.55-.19-.63-.04-1.18-.06-1.63-.07-.46-.01-1.06-.02-1.81-.02h-3.85c-.14 0-.25.01-.34.02-.1.02-.16 0-.3.11h.01c-.11.13-.1.19-.12.29-.01.09-.02.2-.02.33v13.29c0 .36.05.66.2.89.14.24.42.38.7.38.26.01.51-.17.62-.4.11-.23.15-.52.15-.88v-4.72h4.58l5.24 5.6.19-.18-.2.17c.22.26.51.41.83.41.19 0 .38-.07.52-.2.13-.13.2-.32.2-.5 0-.25-.12-.49-.3-.67l-.19.19.19-.18-4.88-5.14-.2.18.01.27c.57-.03 1.11-.08 1.61-.16.52-.08 1.04-.23 1.56-.43.53-.21.99-.47 1.38-.79.39-.33.71-.75.95-1.26.25-.52.37-1.12.37-1.77h-.27z"/><path fill="#1A1918" d="M260.443 361.99l-.013.186-.073.133-.093.08-.14.04-.152.01h-12.81c-.168 0-.268-.03-.3-.08-.03-.05-.046-.18-.046-.39v-14.03l.047-.18.146-.12c.06-.01.16-.02.29-.02h12.56l.13.01.11.02.1.04.08.06.06.08.03.1.01.14c0 .13-.05.23-.14.29-.09.06-.19.1-.29.11-.1.01-.26.01-.47.01h-11.57v5.82h11.42c.46 0 .69.14.69.42 0 .32-.2.48-.6.48h-11.51v6.32h11.59c.21 0 .37.01.47.01.1.01.2.04.29.11.09.06.14.16.14.29"/><path fill="#0A0B09" d="M260.443 361.99l-.265-.02-.01.13-.02.04-.013.01-.064.018-.13.017v.002l-.15.003h-12.62l-.13-.01v-.002l-.05.136.12-.075-.06-.07-.05.13.12-.08h.01v-.01l-.12.07.12-.05-.01-.03-.11.07.13-.05h-.01l.01-.01h-.02.02c0-.02-.02-.12-.02-.27v-14.03h-.26l.26.07.02-.09.08-.06-.16-.21.04.26c.05-.01.14-.01.27-.01h12.55l.11.01.08.01.05.02.03.02.01.01.01.03.01.11.26-.03h-.26l-.02.07-.17.06c-.08.01-.24.01-.45.01H247.7v6.35h11.686c.204 0 .333.04.38.07l.046.09c-.003.11-.022.13-.05.15-.03.02-.115.06-.282.06H247.7v6.85h11.86c.21 0 .36.01.45.01l.166.06.026.07h.265l-.264-.02.265.02h.264c.005-.19-.085-.4-.26-.51-.123-.08-.267-.13-.415-.15-.115-.01-.276-.01-.493-.01h-11.33v-5.79h11.25c.232 0 .443-.05.613-.18.175-.13.255-.36.25-.57.01-.22-.11-.44-.3-.55-.18-.11-.4-.15-.655-.15h-11.16v-5.28h11.303c.215 0 .375 0 .493-.01.15-.01.29-.07.415-.15.174-.11.266-.32.26-.51v-.01l-.015-.16v-.03l-.04-.14-.016-.05-.1-.12-.02-.02-.11-.08-.03-.03-.14-.05h-.016l-.13-.03-.014-.01-.15-.02h-12.59c-.14 0-.24 0-.33.02l-.07.01-.2.15-.07.06-.07.26-.01.03V362c0 .113.006.207.016.29.01.082.02.147.07.243v.002c.08.115.18.146.26.17.09.02.17.023.27.023h12.61c.11 0 .17 0 .24-.01l-.04-.26.03.262.157-.018.02-.004.16-.046.054-.016.13-.116.04-.03.12-.227.02-.243V362h-.27"/><path fill="#1A1918" d="M272.928 349.838c-1.39 1.054-2.085 2.794-2.085 5.22 0 2.425.695 4.166 2.085 5.22 1.39 1.053 3.568 1.58 6.534 1.58 2.966 0 5.146-.527 6.54-1.58 1.395-1.054 2.093-2.795 2.093-5.22 0-2.426-.698-4.166-2.092-5.22-1.395-1.054-3.575-1.58-6.54-1.58-2.967 0-5.145.526-6.535 1.58zm13.925-.57c1.58 1.256 2.37 3.186 2.37 5.79 0 2.602-.79 4.533-2.37 5.79-1.58 1.257-4.044 1.886-7.39 1.886-3.348 0-5.81-.63-7.385-1.886-1.577-1.257-2.364-3.188-2.364-5.79 0-2.604.787-4.534 2.364-5.79 1.576-1.258 4.037-1.887 7.384-1.887 3.347 0 5.81.63 7.39 1.89z"/><path fill="#0A0B09" d="M272.928 349.838l-.16-.212c-1.475 1.117-2.193 2.96-2.19 5.432-.003 2.47.715 4.314 2.19 5.43 1.466 1.108 3.698 1.633 6.694 1.635 2.996-.002 5.23-.527 6.7-1.634 1.48-1.12 2.2-2.96 2.198-5.44.003-2.47-.718-4.32-2.197-5.43-1.47-1.11-3.705-1.63-6.7-1.64-2.997 0-5.23.52-6.695 1.63l.16.21.16.21c1.314-1 3.437-1.53 6.374-1.53s5.062.52 6.38 1.52c1.31.99 1.984 2.62 1.987 5.01-.01 2.38-.68 4.01-1.99 5-1.32 1-3.45 1.52-6.38 1.52-2.94 0-5.06-.53-6.38-1.53-1.31-.99-1.98-2.63-1.98-5.01s.67-4.02 1.98-5.01l-.16-.21zm13.925-.57l-.165.206c1.505 1.2 2.267 3.03 2.27 5.584-.003 2.552-.765 4.382-2.27 5.582l-.02.016.02-.016c-1.505 1.2-3.91 1.83-7.226 1.83s-5.718-.63-7.22-1.83c-1.5-1.2-2.26-3.03-2.263-5.582 0-2.555.76-4.384 2.26-5.584l.02-.02-.03.02c1.5-1.2 3.9-1.83 7.22-1.828 3.31 0 5.72.628 7.22 1.828l.16-.207.16-.208c-1.66-1.32-4.18-1.95-7.56-1.95s-5.9.63-7.55 1.94l-.02.02.02-.02c-1.65 1.31-2.47 3.34-2.46 6-.01 2.65.81 4.68 2.46 5.99l-.04-.03.03.02c1.65 1.31 4.17 1.94 7.55 1.94 3.37 0 5.9-.63 7.55-1.95l.03-.02-.03.02c1.66-1.31 2.47-3.35 2.47-6 0-2.66-.81-4.69-2.47-6l-.17.21z"/><path fill="#1A1918" d="M294.125 355.442v6.083c0 .62-.182.93-.545.93-.24 0-.396-.08-.472-.24-.075-.158-.112-.38-.112-.663v-13.4c0-.258.017-.404.053-.44.03-.034.18-.052.43-.052h12.99c.2 0 .35.004.44.013.09.01.18.05.26.126.08.07.12.18.12.32 0 .13-.04.23-.12.29-.08.06-.17.1-.26.1-.1.01-.25.01-.46.01H294.1v6.03h10.454c.22 0 .38 0 .48.01.096.01.19.04.27.1.086.06.13.16.13.29 0 .14-.05.25-.14.32-.096.07-.19.12-.29.12-.096 0-.246.01-.45.01h-10.45"/><path fill="#0A0B09" d="M294.125 355.442h-.266v6.083c0 .285-.05.477-.1.564-.06.08-.08.09-.18.1-.09 0-.15-.02-.18-.03l-.06-.06c-.05-.11-.09-.29-.09-.55v-13.4c0-.13 0-.22.01-.27l.01-.05-.16-.05.11.11.04-.07-.16-.05.11.11v-.01l-.11-.11.04.15.06-.05-.11-.11.04.15c.01-.01.13-.02.31-.02h12.99c.2 0 .34 0 .42.01l.11.06c.02.02.03.04.04.13l-.02.08-.12.05c-.08.01-.23.01-.43.01h-12.61v6.56h10.72c.22 0 .37 0 .45.01l.14.05.02.08-.04.12-.14.07c-.08.01-.23.01-.43.01h-10.72v.27h.27v.26h10.45c.2 0 .36-.01.47-.02.16-.02.31-.09.43-.19.16-.12.24-.33.24-.53 0-.18-.07-.39-.24-.5l-.01-.01c-.11-.09-.25-.14-.4-.16-.12-.01-.28-.01-.51-.01h-10.18v-5.5h12.08c.21 0 .37 0 .48-.01.14-.01.28-.07.39-.16.15-.12.22-.32.22-.5 0-.19-.07-.39-.22-.52v-.01c-.12-.1-.26-.18-.42-.19h-.01c-.11-.01-.26-.02-.47-.02H293.4c-.13 0-.24 0-.33.01-.09.02-.153 0-.29.12h.006c-.114.14-.096.2-.117.29-.01.09-.02.2-.02.33v13.4c0 .3.04.56.14.77.06.13.17.24.3.3.12.06.26.08.41.08.26.01.51-.14.64-.37.13-.23.17-.5.17-.83v-6.08h-.26v.26-.27"/><path fill="#1A1918" d="M317.513 360.92c-1.638-1.207-2.457-3.162-2.457-5.862s.82-4.656 2.457-5.865c1.637-1.208 4.14-1.812 7.504-1.812 2.3 0 4.515.44 6.64 1.32.266.12.4.29.4.51 0 .11-.04.2-.12.28-.08.08-.183.12-.307.12-.062 0-.146-.02-.252-.06-2.037-.85-4.157-1.27-6.36-1.27-3.145 0-5.403.54-6.775 1.6-1.372 1.07-2.058 2.8-2.058 5.2 0 2.4.686 4.13 2.058 5.2 1.372 1.07 3.63 1.6 6.774 1.6 2.204 0 4.324-.42 6.36-1.27.107-.03.187-.05.24-.05.133 0 .24.04.325.12.085.08.127.17.127.28 0 .21-.14.38-.42.49-2.13.88-4.34 1.32-6.64 1.32-3.37 0-5.87-.6-7.51-1.81"/><path fill="#0A0B09" d="M317.513 360.92l.157-.213c-1.555-1.15-2.345-2.998-2.35-5.65.005-2.65.795-4.5 2.35-5.65 1.565-1.157 4.012-1.762 7.347-1.76 2.268 0 4.445.43 6.54 1.293l.1-.245-.105.244c.105.04.165.09.196.13l.042.13-.042.09h-.002l.003-.01-.12.04-.15-.05h-.01c-2.07-.86-4.23-1.3-6.47-1.3-3.17 0-5.49.53-6.94 1.65-1.46 1.13-2.17 2.96-2.16 5.41-.01 2.44.7 4.28 2.16 5.41l.02.01-.02-.02c1.45 1.12 3.76 1.65 6.93 1.65 2.24 0 4.39-.43 6.46-1.3l-.11-.25.08.25c.09-.04.15-.04.15-.04l.14.04.04.09-.04.11c-.04.04-.1.09-.21.13-2.09.86-4.27 1.29-6.54 1.29-3.33 0-5.78-.61-7.35-1.77l-.16.21-.15.21c1.71 1.26 4.26 1.86 7.66 1.86 2.33 0 4.58-.45 6.74-1.34.16-.07.3-.15.41-.28.1-.12.16-.29.16-.45 0-.18-.08-.35-.21-.47h-.01c-.14-.13-.32-.19-.51-.19-.11 0-.2.03-.32.06h-.02c-2.01.84-4.09 1.25-6.26 1.25-3.12 0-5.32-.54-6.61-1.55l-.02-.02.02.02c-1.29-1.01-1.96-2.64-1.96-4.99 0-2.36.66-3.99 1.95-4.99l.03-.03-.03.02c1.29-1.01 3.49-1.55 6.61-1.55 2.17 0 4.25.41 6.26 1.25.12.05.23.09.35.09.18 0 .36-.07.49-.2v-.01c.12-.12.2-.29.19-.47 0-.16-.06-.33-.16-.46s-.24-.22-.4-.29c-2.16-.89-4.41-1.34-6.74-1.33-3.4 0-5.96.6-7.67 1.86l-.03.02.03-.02c-1.72 1.27-2.57 3.33-2.57 6.08-.01 2.74.84 4.81 2.56 6.07l-.02-.01.02.01.16-.22"/><path fill="#1A1918" d="M338.045 349.838c-1.39 1.054-2.085 2.794-2.085 5.22 0 2.425.695 4.166 2.085 5.22 1.39 1.053 3.568 1.58 6.535 1.58 2.965 0 5.146-.527 6.54-1.58 1.395-1.054 2.092-2.795 2.092-5.22 0-2.426-.697-4.166-2.09-5.22-1.396-1.054-3.577-1.58-6.542-1.58-2.967 0-5.144.526-6.535 1.58zm13.926-.57c1.58 1.256 2.37 3.186 2.37 5.79 0 2.602-.79 4.533-2.37 5.79-1.58 1.257-4.04 1.886-7.39 1.886-3.34 0-5.81-.63-7.38-1.886-1.57-1.257-2.36-3.188-2.36-5.79 0-2.604.79-4.534 2.37-5.79 1.58-1.258 4.04-1.887 7.39-1.887 3.35 0 5.81.63 7.39 1.89z"/><path fill="#0A0B09" d="M338.045 349.838l-.16-.212c-1.475 1.117-2.193 2.96-2.19 5.432-.003 2.47.715 4.314 2.19 5.43 1.466 1.108 3.7 1.633 6.695 1.635 2.995-.002 5.23-.527 6.7-1.634 1.48-1.12 2.2-2.96 2.198-5.44.003-2.47-.718-4.32-2.198-5.43-1.47-1.11-3.705-1.63-6.7-1.64-2.996 0-5.23.52-6.695 1.63l.16.21.16.21c1.315-1 3.438-1.53 6.375-1.53 2.936 0 5.062.52 6.38 1.52 1.31.99 1.984 2.62 1.987 5.01-.003 2.38-.677 4.01-1.986 5-1.31 1-3.44 1.52-6.38 1.52-2.93 0-5.06-.53-6.37-1.53-1.3-.99-1.97-2.63-1.98-5.01.01-2.38.68-4.02 1.98-5.01l-.16-.21zm13.926-.57l-.16.206c1.51 1.2 2.27 3.03 2.27 5.584 0 2.552-.76 4.382-2.27 5.582-1.5 1.2-3.91 1.83-7.22 1.83s-5.72-.63-7.22-1.83c-1.5-1.2-2.26-3.03-2.26-5.582.01-2.555.77-4.384 2.27-5.584l.02-.017-.02.017c1.5-1.2 3.91-1.83 7.22-1.828 3.32 0 5.72.628 7.23 1.828l.17-.207.17-.208c-1.65-1.32-4.18-1.95-7.55-1.95-3.38 0-5.9.63-7.55 1.94l-.02.02.02-.02c-1.65 1.31-2.47 3.34-2.46 6-.01 2.65.81 4.68 2.46 5.99l-.03-.03.04.02c1.65 1.31 4.17 1.94 7.55 1.94s5.9-.63 7.56-1.95c1.66-1.31 2.47-3.35 2.47-6 0-2.66-.81-4.69-2.47-6l-.17.21z"/><path fill="#1A1918" d="M359.48 348.23l8.235 12.38 8.235-12.38c.248-.38.518-.57.81-.57.168 0 .308.068.418.205.112.138.166.31.166.512v13.148c0 .31-.035.542-.105.698-.08.155-.23.232-.47.232-.37 0-.56-.31-.56-.93V349.73l-7.85 11.582c-.22.302-.43.453-.65.453-.24 0-.46-.15-.65-.453l-7.85-11.58v11.793c0 .62-.19.93-.56.93-.24 0-.4-.077-.47-.232-.07-.156-.11-.388-.11-.698v-13.148c0-.203.05-.374.16-.512.11-.137.25-.205.42-.205.28 0 .55.19.81.57"/><path fill="#0A0B09" d="M359.48 348.23l-.22.147 8.455 12.71 8.456-12.71.01-.002c.23-.345.43-.45.59-.45.1.004.14.024.22.107.07.087.11.188.11.345v13.148c0 .29-.04.493-.08.588l-.04.047c-.02.014-.08.03-.17.03-.11-.008-.13-.02-.19-.104-.05-.086-.1-.277-.1-.56v-12.66l-8.33 12.298.22.148-.21-.152c-.19.272-.34.343-.43.34-.11 0-.25-.067-.42-.33v-.002l-8.34-12.3v12.657c.01.285-.04.475-.1.56-.06.084-.08.097-.19.105-.09 0-.15-.016-.17-.03l-.04-.048v.005-.004c-.04-.095-.08-.3-.08-.588v-13.148c0-.156.04-.258.11-.346v.01c.08-.08.12-.1.21-.11.16 0 .36.11.59.46v.01l.22-.14.22-.15c-.27-.41-.61-.68-1.03-.68-.24 0-.47.11-.62.3-.15.19-.23.43-.23.68v13.15c0 .33.03.59.13.81.06.13.16.24.29.31.13.07.27.09.41.09.26.01.52-.13.65-.36.13-.23.17-.5.17-.84V350.6l7.36 10.865.22-.147-.22.144c.21.34.51.573.87.573.35-.003.64-.233.87-.564L376 350.6v10.93c.004.34.05.61.18.84.13.23.39.37.65.36.15 0 .284-.02.41-.08s.234-.17.29-.3c.1-.21.13-.47.13-.8V348.4c0-.25-.07-.49-.223-.68v.002c-.15-.193-.387-.31-.63-.306-.42 0-.764.277-1.03.69v-.002l-8.014 12.05-8.012-12.044-.22.147"/><path fill="#1A1918" d="M393.654 352.933c0-.736-.093-1.36-.28-1.874-.185-.52-.446-.94-.783-1.27-.33-.33-.8-.59-1.39-.77-.59-.18-1.24-.31-1.94-.38s-1.56-.11-2.58-.11h-3.95V357h3.96c.67 0 1.23-.008 1.7-.02.47-.015.94-.046 1.43-.095.49-.047.89-.114 1.22-.2.33-.083.65-.193.97-.33.32-.138.57-.306.76-.505.19-.198.36-.437.51-.717.16-.28.27-.6.33-.97.07-.367.1-.78.1-1.24zm1.13 0c0 .672-.08 1.268-.24 1.786-.16.51-.354.94-.585 1.29-.23.34-.57.63-1.01.87-.45.23-.86.41-1.23.54-.38.12-.89.21-1.55.28-.66.06-1.21.1-1.66.11-.45.01-1.07.02-1.86.02h-3.95v3.61c0 .67-.18 1.01-.52 1.01-.41 0-.61-.34-.61-1.01v-13.29c0-.14 0-.23.01-.3l.13-.14.18-.05c.05-.01.16-.01.34-.01h4.41c.87 0 1.64.02 2.29.07.65.05 1.3.14 1.95.26.65.13 1.19.31 1.64.56.44.25.84.56 1.19.94.35.38.61.86.78 1.43.17.57.25 1.24.25 1.99z"/><path fill="#0A0B09" d="M393.654 352.933h.265c0-.758-.1-1.412-.3-1.964-.2-.55-.48-1.01-.85-1.37-.38-.37-.88-.65-1.51-.84-.61-.19-1.28-.32-2-.39s-1.59-.11-2.61-.11h-4.23v9h4.22c.67 0 1.23-.01 1.7-.02.47-.02.95-.05 1.45-.1.49-.05.91-.12 1.25-.21.33-.09.67-.21 1-.35.34-.15.63-.34.84-.57.2-.22.38-.48.55-.77l.01-.03-.02.03c.17-.31.29-.66.35-1.06v-.02l-.01.01c.06-.39.1-.81.1-1.29h-.53c0 .44-.03.84-.09 1.19l-.01.01v-.01c-.06.34-.16.63-.3.88-.15.26-.31.48-.48.66-.15.16-.37.31-.67.44h.01c-.31.13-.62.24-.93.32h-.01c-.31.08-.7.14-1.18.19-.48.05-.95.08-1.41.09-.46.01-1.02.02-1.69.02h-3.69v-7.94h3.7c1.01 0 1.86.04 2.55.11.69.07 1.32.19 1.9.37.56.17.99.41 1.28.7l.01.01-.02-.01c.3.3.54.68.72 1.17.17.47.26 1.07.26 1.78h.26zm1.13 0h-.267c0 .652-.076 1.22-.226 1.708v.02l.01-.02c-.15.5-.34.91-.55 1.23-.2.31-.5.57-.91.79-.43.23-.83.41-1.19.52l-.01.01h.02c-.34.12-.84.21-1.49.27-.65.07-1.19.1-1.63.12-.44.01-1.06.02-1.84.02h-4.22v3.88c0 .31-.04.53-.1.64-.06.1-.07.1-.15.11-.13-.01-.16-.03-.23-.12-.06-.1-.11-.31-.11-.62v-13.3c0-.12.01-.21.02-.25l-.26-.05.19.19.08-.08.11-.02-.06-.26.02.27h4.73c.87 0 1.63.03 2.27.07.64.05 1.28.14 1.92.26.63.13 1.15.31 1.57.54h-.01l.01.01c.42.23.79.53 1.13.89.32.35.56.79.72 1.33.16.54.24 1.18.24 1.92h.53c0-.78-.08-1.46-.26-2.07-.18-.61-.46-1.13-.84-1.54-.38-.4-.8-.73-1.26-1-.48-.26-1.05-.46-1.72-.59-.66-.13-1.32-.22-1.99-.27-.66-.05-1.43-.07-2.31-.07h-4.41c-.18 0-.29 0-.36.01h-.02l-.21.05-.07.02-.19.19-.06.05-.01.08c-.02.09-.02.2-.02.34v13.29c0 .37.05.66.19.9s.41.38.69.38c.26.01.52-.16.63-.4.12-.24.16-.52.16-.88v-3.35h3.69c.79 0 1.41-.01 1.86-.02.46-.02 1.01-.05 1.67-.12.67-.06 1.2-.15 1.61-.29.4-.13.82-.31 1.27-.55.47-.25.85-.57 1.11-.96.25-.37.46-.82.62-1.36.17-.55.25-1.17.25-1.86h-.26z"/><path fill="#1A1918" d="M410.986 361.99l-.013.186-.073.133-.093.08-.14.04-.153.01h-12.81c-.167 0-.267-.03-.3-.08-.03-.05-.044-.18-.044-.39v-14.03l.046-.18.146-.12c.067-.01.166-.02.3-.02h12.563l.132.01.114.02.11.04.08.06.07.08.04.1.02.14c0 .13-.04.23-.14.29-.09.06-.19.1-.29.11-.1.01-.26.01-.47.01H398.5v5.82h11.42c.46 0 .69.14.69.42 0 .32-.2.48-.6.48h-11.52v6.32h11.594c.212 0 .37.01.47.01.103.01.2.04.293.11.094.06.14.16.14.29"/><path fill="#0A0B09" d="M410.986 361.99l-.265-.018v.127l-.02.04-.01.01-.06.01-.13.01h-12.78l-.14-.01v-.01l-.05.13.12-.08-.07-.07-.05.13.12-.08-.11.07.13-.05-.01-.03-.12.07.13-.05-.01.01.02-.01h-.01.02c0-.02-.02-.13-.01-.28V347.9h-.26l.26.07.03-.085.08-.05-.16-.21.04.262c.04-.01.14-.01.26-.01h12.55l.1.01.08.015.06.02.03.02.01.01.01.03.01.11.26-.024h-.26l-.02.07-.17.06c-.08.01-.24.01-.45.01H398.3v6.35h11.69c.207 0 .336.04.38.07l.05.09c-.005.104-.024.123-.05.15-.03.023-.12.06-.284.06H398.3v6.85h11.86c.21 0 .36.01.45.02l.17.06.02.07h.27l-.267-.02.265.02h.266c.01-.19-.08-.4-.26-.51l-.14.22.15-.22c-.123-.084-.27-.14-.42-.15-.113-.01-.28-.014-.49-.014H398.8v-5.79H410c.233 0 .444-.04.614-.18.173-.13.253-.35.25-.56.007-.213-.112-.437-.3-.544-.184-.11-.4-.146-.656-.15h-11.156v-5.29h11.302c.217 0 .377 0 .495-.01.15-.01.29-.07.41-.15.17-.11.26-.32.25-.51v-.014l-.02-.16-.01-.03-.04-.13-.02-.05-.1-.12-.02-.02-.11-.08-.03-.03-.14-.05h-.02l-.13-.03-.02-.006-.15-.01h-12.59c-.14 0-.25 0-.34.015l-.07.01-.21.16-.07.053-.07.26-.01.035v14.07c0 .115 0 .208.01.29.01.086.01.15.07.25.08.12.18.15.26.17.08.02.16.027.26.027h12.61c.11 0 .17 0 .24-.01l-.04-.265.03.26.15-.02h.02l.16-.05.06-.02.14-.12.03-.03.09-.175.03-.05.01-.245h-.26"/><path fill="#1A1918" d="M430.11 348.15l-.013.127-.053.1-.066.066-.1.047-.113.033-.133.013h-7.61v12.937c0 .21-.01.377-.026.498-.018.12-.07.23-.16.34-.088.1-.21.15-.372.15-.38 0-.57-.32-.57-.98v-12.94h-7.63l-.146-.01-.12-.03-.106-.04-.073-.06-.06-.1-.02-.12c0-.33.3-.49.91-.49h15.55c.16 0 .28 0 .36.01.08.01.16.03.26.06s.16.08.2.15c.04.07.06.16.06.28"/><path fill="#0A0B09" d="M430.11 348.15l-.263-.027-.008.075-.01.02-.01.005-.04.018-.07.03-.1.01h-7.87v13.2c0 .21-.01.36-.03.46v-.03l-.01.03-.1.2-.01.01c-.04.04-.07.06-.18.06-.12 0-.14-.02-.2-.11s-.11-.3-.11-.6v-13.21h-7.89l-.11-.01-.08-.02-.05-.02-.01-.01-.01-.01-.01-.07-.26.03h.26l.09-.13c.08-.05.28-.09.56-.09h15.56c.16 0 .27 0 .35.01l.01-.26-.01.27.2.04.06.03.02.15h.26l-.26-.03.26.03h.26c0-.14-.03-.28-.1-.41-.08-.14-.21-.23-.35-.27-.11-.03-.22-.06-.33-.06H413.6c-.33 0-.6.04-.82.16-.22.11-.38.35-.37.6v.01l.01.14.006.05.08.15.02.04.1.1.03.03.146.06.016.01.14.04h.02l.17.02h7.39v12.67c0 .35.04.64.17.87.123.23.39.38.653.38.22 0 .43-.08.57-.24.12-.13.2-.29.22-.47v.03l.01-.03c.02-.14.03-.31.03-.53v-12.7h7.36l.15-.01h.03l.14-.04h.02l.12-.06.04-.02.1-.1.03-.03.08-.14.02-.05.02-.18v-.03h-.26"/><path fill="#1A1918" d="M446.115 361.99l-.013.186-.073.133-.1.08-.14.04-.16.01h-12.81c-.17 0-.27-.03-.3-.08-.03-.05-.05-.18-.05-.39v-14.03l.04-.18.15-.12c.07-.01.16-.02.3-.02h12.56l.13.01.11.02.1.04.08.06.06.08.04.1.01.14c0 .13-.05.23-.14.29-.09.06-.19.1-.29.11-.1.01-.26.01-.47.01H433.6v5.82h11.424c.46 0 .69.14.69.42 0 .32-.2.48-.6.48h-11.51v6.32H445.2c.213 0 .37.01.47.01.104.01.2.04.294.11.092.06.14.16.14.29"/><path fill="#0A0B09" d="M446.115 361.99l-.265-.018-.01.127-.02.04-.013.01-.064.01-.133.01h-12.78l-.137-.01-.005-.01-.05.13.118-.08-.067-.07-.05.13.11-.08-.12.07.13-.05-.02-.03-.12.07.13-.05h-.02l.02-.01h-.02l.02-.01c-.01-.02-.02-.12-.02-.28v-14h-.27l.25.07.02-.09.07-.06-.17-.21.04.26c.04-.01.13-.01.26-.01h12.55l.1.01.08.02.05.02.02.02.01.01.01.03.01.11.26-.03h-.26l-.03.07-.17.06c-.09.01-.24.01-.45.01H433.3v6.35H445c.2 0 .33.04.38.07l.05.09c-.01.1-.03.12-.05.15-.03.02-.12.06-.29.06h-11.78v6.85h11.86c.206 0 .36 0 .446.01l.17.06.02.07h.268l-.264-.02.266.01h.264c.006-.19-.084-.41-.26-.52l-.15.22.15-.22c-.123-.09-.27-.14-.415-.15-.116-.01-.277-.02-.495-.02h-11.33v-5.79h11.25c.23 0 .44-.05.61-.18.174-.14.254-.36.25-.57.01-.22-.11-.44-.3-.55-.18-.11-.4-.14-.655-.14h-11.14v-5.29h11.305c.216 0 .376 0 .494-.01.15-.01.29-.06.42-.15.17-.11.26-.32.253-.51l-.02-.15-.003-.03-.04-.13-.01-.05-.1-.12-.02-.02-.1-.08-.03-.02-.144-.05h-.015l-.13-.03-.013-.01-.15-.01h-12.59c-.14 0-.244 0-.334.01l-.07.01-.204.15-.07.05-.07.26-.01.04v14.07c0 .11 0 .202.01.29.01.08.02.15.075.242.08.12.18.15.26.17.08.02.17.03.26.03h12.6c.11 0 .17 0 .24-.01l-.04-.26.04.26.15-.01.02-.01.16-.05.05-.01.14-.12.04-.03.09-.17.03-.05.01-.25v-.02h-.27"/><path fill="#1A1918" d="M451.082 348.098l13.586 12.657V348.67c0-.213.01-.382.027-.506.017-.123.07-.238.16-.345.088-.11.217-.16.385-.16.372 0 .557.33.557 1.01v12.93c0 .56-.15.85-.45.85-.205 0-.457-.14-.758-.42l-13.7-12.69v12.16c0 .62-.18.93-.55.93-.24 0-.4-.08-.47-.24-.08-.16-.12-.39-.12-.69v-13c0-.55.18-.83.54-.83.22 0 .48.13.77.4"/><path fill="#0A0B09" d="M451.082 348.098l-.18.194 14.032 13.072V348.67c0-.205.01-.365.023-.47l.102-.21v-.005l-.01.003c.03-.036.06-.06.18-.063.1.01.12.017.18.115.06.102.11.316.1.63v12.935c0 .26-.04.437-.09.513l-.11.072c-.08.007-.3-.083-.58-.343v.004l-14.14-13.09v12.78c0 .29-.05.48-.1.57-.06.09-.08.1-.18.1-.09 0-.15-.01-.18-.03l-.06-.05v.01c-.05-.09-.09-.29-.09-.57v-13c0-.25.04-.4.09-.47.05-.07.07-.08.18-.09.11 0 .32.08.59.33l.18-.2-.18.19.18-.19.18-.2c-.32-.28-.62-.46-.95-.46-.25 0-.5.12-.63.33-.14.21-.18.46-.18.76v13c0 .33.03.59.14.81v.01c.06.13.16.24.29.3.13.07.27.09.42.09.26.01.51-.14.64-.36.13-.22.17-.5.17-.83V350l13.25 12.27c.32.29.61.474.93.48.24.01.47-.146.57-.356.1-.207.14-.455.14-.762v-12.94c0-.36-.05-.65-.17-.887-.12-.24-.39-.4-.65-.39-.22-.004-.45.08-.59.255-.12.138-.2.3-.22.477l-.01.023v-.023c-.02.15-.03.328-.03.548v11.47l-13.14-12.24-.18.194"/><path fill="#1A1918" d="M472.013 360.92c-1.638-1.207-2.457-3.162-2.457-5.862s.82-4.656 2.457-5.865c1.638-1.208 4.14-1.812 7.504-1.812 2.302 0 4.516.44 6.64 1.32.266.12.4.29.4.51 0 .11-.04.2-.12.28-.08.08-.183.12-.306.12-.06 0-.14-.02-.25-.06-2.03-.85-4.15-1.27-6.36-1.27-3.14 0-5.4.54-6.77 1.6-1.37 1.07-2.06 2.8-2.06 5.2 0 2.4.69 4.13 2.06 5.2 1.37 1.07 3.63 1.6 6.78 1.6 2.21 0 4.33-.42 6.36-1.27.11-.03.19-.05.24-.05.14 0 .24.04.33.12.09.08.13.17.13.28 0 .21-.13.38-.41.49-2.12.88-4.34 1.32-6.64 1.32-3.36 0-5.86-.6-7.5-1.81"/><path fill="#0A0B09" d="M472.013 360.92l.158-.213c-1.55-1.15-2.34-2.998-2.35-5.65.01-2.65.8-4.5 2.35-5.65l-.21.157.22-.157c1.57-1.157 4.01-1.762 7.35-1.76 2.27 0 4.45.43 6.54 1.293l.1-.245-.1.244c.11.04.17.09.2.13l.05.13-.04.09-.12.04-.15-.05H486h.004c-2.068-.86-4.226-1.3-6.464-1.3-3.17 0-5.48.53-6.934 1.65-1.457 1.13-2.165 2.96-2.16 5.41-.005 2.44.703 4.28 2.16 5.41l.03.02-.03-.03c1.453 1.12 3.763 1.65 6.935 1.66 2.24 0 4.4-.43 6.46-1.3l-.1-.25.09.25c.09-.03.16-.04.16-.04l.15.04.05.08-.04.11c-.03.04-.1.09-.21.14-2.09.86-4.27 1.29-6.54 1.29-3.33 0-5.78-.61-7.34-1.76l-.15.21-.15.21c1.71 1.26 4.27 1.86 7.66 1.86 2.34 0 4.59-.45 6.74-1.34.17-.07.31-.16.41-.28.11-.12.17-.29.17-.45.01-.18-.08-.36-.2-.47v-.01h.01c-.13-.13-.32-.19-.51-.19-.11 0-.2.03-.32.07h-.02c-2 .84-4.09 1.26-6.26 1.26-3.11 0-5.32-.54-6.61-1.55s-1.95-2.64-1.96-4.99c0-2.36.67-3.99 1.96-4.99l.11-.08-.1.08c1.29-1.01 3.5-1.54 6.61-1.54 2.17 0 4.26.42 6.26 1.25.13.05.23.08.36.08.18 0 .37-.06.49-.2.12-.12.2-.3.19-.47 0-.16-.05-.33-.15-.46-.1-.13-.24-.22-.4-.29v-.01c-2.16-.89-4.41-1.33-6.74-1.33-3.4 0-5.95.6-7.66 1.86-1.73 1.27-2.57 3.33-2.57 6.08s.84 4.81 2.57 6.07l-.04-.03.04.03.15-.22"/><path fill="#1A1918" d="M503.463 361.99l-.012.186-.07.133-.09.08-.14.04-.15.01h-12.81c-.17 0-.26-.03-.3-.08-.03-.05-.04-.18-.04-.39v-14.03l.05-.18.15-.12c.07-.01.17-.02.3-.02h12.56l.14.01.12.02.11.04.08.06.07.08.03.1.02.14c0 .13-.04.23-.14.29-.09.06-.19.1-.29.11-.1.01-.26.01-.47.01H491v5.82h11.42c.46 0 .69.14.69.42 0 .32-.2.48-.597.48h-11.52v6.32h11.59c.21 0 .37.01.47.01.1.01.2.04.295.11.093.06.14.16.14.29"/><path fill="#0A0B09" d="M503.463 361.99l-.264-.018-.01.127-.03.04-.02.01-.07.01-.14.01h-12.77l-.14-.01-.01-.01-.05.13.12-.08-.06-.07-.05.13.11-.08-.12.07.13-.05-.02-.03-.12.07.13-.05h-.02l.01-.01h-.02l.02-.01c-.01-.02-.02-.12-.02-.28v-14h-.27l.26.07.02-.09.07-.06-.16-.21.03.26c.04-.01.14-.01.27-.01h12.55l.1.01.08.02.05.02.02.01.01.02.01.03.01.11.26-.02h-.27l-.03.07-.17.06c-.09.01-.24.01-.45.01h-11.8v6.35h11.69c.2 0 .33.03.38.06l.04.09c0 .1-.02.12-.05.15-.03.02-.12.06-.28.06H490.7v6.85h11.86c.208 0 .362.01.45.02l.166.06h.002l.02.07h.265l-.264-.02.26.01h.26c0-.19-.09-.4-.26-.51l-.15.22.15-.22c-.13-.09-.27-.14-.42-.15-.12-.01-.28-.02-.5-.02h-11.32v-5.79h11.25c.23 0 .44-.05.61-.18.17-.14.25-.36.25-.57 0-.22-.12-.44-.3-.55-.19-.11-.4-.14-.66-.14h-11.15v-5.29h11.3c.21 0 .38-.01.49-.02.15-.01.29-.07.41-.15.17-.11.26-.32.25-.51V348l-.02-.156-.01-.03-.04-.13-.01-.05-.1-.12-.02-.03-.1-.08-.03-.02-.14-.05-.02-.006-.13-.03h-.02l-.15-.013H490.3c-.14 0-.24.006-.33.02l-.07.01-.205.16-.07.05-.07.26-.01.033v14.07c0 .11.01.203.02.29.016.08.02.15.08.25.08.11.18.142.26.17.08.02.165.02.262.02h12.61c.11 0 .17 0 .245-.01l-.04-.26.03.262.15-.02.02-.004.16-.04.057-.02.14-.12.03-.03.09-.17.03-.053.02-.24v-.02h-.26"/><path fill="#1A1918" d="M517.382 361.578v-13.042h-4.74c-.48 0-.767-.05-.864-.145-.07-.07-.107-.16-.107-.26l.02-.15.06-.12.08-.08.12-.05.12-.03.15-.02h11.16c.21 0 .35.01.45.02.1.01.19.05.28.12.09.07.14.17.14.32s-.04.25-.13.31c-.09.07-.18.11-.27.12-.09.01-.24.02-.44.02h-4.85v13.04h4.85c.2 0 .35.01.45.02.09.01.18.05.27.11.09.07.13.17.13.31 0 .14-.04.25-.13.31-.09.07-.18.11-.27.11-.09.01-.24.02-.44.02h-11.16l-.14-.02-.12-.03-.11-.06-.08-.08-.06-.12-.01-.15c0-.13.05-.23.15-.29.1-.06.2-.1.3-.11.1-.01.24-.01.44-.01h4.82"/><path fill="#0A0B09" d="M517.382 361.578h.266V348.27h-5.007c-.23 0-.41-.01-.53-.032l-.13-.032-.02-.01-.02.037.03-.03-.01-.007-.02.037.03-.03-.03-.078h-.26l.27.022.01-.102.02-.036.02-.02.05-.03.08-.03.12-.02.12-.01h11.01c.2 0 .35 0 .42.01l.14.06c.01.01.02.01.03.1 0 .09-.02.09-.03.1l-.14.06h.01c-.07 0-.22.01-.42.01h-5.11v13.57h5.12c.2 0 .34 0 .42.01l.14.06c.01.01.02.01.03.1 0 .09-.01.09-.02.1l-.14.06c-.07.01-.21.01-.41.01H512.4l-.13-.01-.12-.02-.08-.03-.05-.02-.02-.02-.02-.04-.01-.1-.26.02h.262l.02-.07.18-.07c.086-.01.226-.01.417-.01h5.08v-.27h-.27v-.27h-4.82c-.2 0-.35 0-.47.01-.15.01-.29.06-.41.14-.18.1-.28.32-.28.52v.01l.02.16v.05l.08.17.02.04.11.11.03.03.15.07.02.01.14.04h.02l.17.02h11.19c.2 0 .36-.01.47-.02l-.03-.26.02.26c.15-.01.29-.08.41-.17.17-.12.24-.34.24-.53s-.07-.4-.24-.52c-.12-.09-.26-.15-.41-.17-.11-.01-.26-.02-.47-.02h-4.58v-12.5h4.58c.2 0 .35 0 .46-.02h-.01.01c.15-.01.29-.08.4-.17.17-.12.24-.34.24-.53 0-.2-.07-.41-.24-.53-.12-.09-.26-.15-.41-.17v-.01h.01c-.11-.01-.27-.02-.47-.02h-11.02l-.15.01h-.01l-.16.02-.02.004-.14.04-.02.01-.18.08-.11.12-.03.03-.08.16-.02.05-.02.2v.02c-.01.16.06.34.18.45.13.12.27.15.44.18.16.03.37.04.62.04h4.47v12.78h.26v-.267.26"/><path fill="#1A1918" d="M528.233 348.098l13.587 12.657V348.67c0-.213.01-.382.026-.506.018-.123.07-.238.16-.345.088-.11.217-.16.385-.16.38 0 .56.33.56 1.01v12.93c0 .56-.15.85-.45.85-.2 0-.45-.14-.75-.42l-13.69-12.68v12.16c0 .62-.18.93-.54.93-.24 0-.39-.08-.47-.24-.07-.16-.11-.39-.11-.69v-13c0-.55.19-.83.55-.83.22 0 .48.13.77.4"/><path fill="#0A0B09" d="M528.233 348.098l-.18.194 14.032 13.072V348.67c0-.205.01-.365.024-.47l.1-.21v-.002c.03-.036.06-.06.18-.063.1.01.12.017.18.115.06.102.11.316.1.63v12.935c0 .26-.04.437-.08.513l-.11.072c-.09.007-.3-.083-.58-.343l-14.14-13.095v12.773c0 .285-.05.477-.1.564-.06.08-.08.09-.18.1-.09 0-.15-.02-.18-.03l-.06-.06v-.01c-.05-.1-.09-.3-.09-.58v-13c0-.25.04-.41.09-.47.05-.07.07-.09.18-.09.11-.01.32.08.59.33l.18-.2-.18.19.18-.2.18-.2c-.32-.28-.62-.46-.95-.47-.25-.01-.5.11-.63.32-.13.21-.18.46-.18.76v13c0 .32.04.58.14.8.06.12.17.23.29.3.13.06.27.09.41.09.26 0 .51-.14.64-.37.13-.22.17-.5.17-.83v-11.56l13.25 12.27c.32.29.61.47.94.48.23.01.47-.14.57-.35.11-.21.14-.46.14-.77v-12.93c0-.36-.05-.65-.17-.89-.13-.24-.39-.4-.65-.39-.22-.01-.45.08-.59.25v-.01c-.12.13-.2.3-.22.47-.02.14-.03.32-.03.54v11.48l-13.14-12.24h-.01l-.17.2"/><path fill="#1A1918" d="M565.208 352.255c0-.354-.024-.675-.073-.963-.05-.287-.13-.547-.246-.776-.12-.23-.25-.437-.38-.62-.14-.18-.32-.337-.55-.47-.23-.133-.46-.247-.68-.345-.22-.09-.51-.18-.85-.24-.34-.06-.67-.12-.97-.16-.31-.04-.69-.07-1.14-.09-.45-.02-.87-.03-1.26-.04h-4.63v7.04h4.98c.69 0 1.29-.02 1.8-.06.51-.04 1.02-.13 1.55-.26.52-.13.95-.32 1.29-.55.33-.23.6-.55.81-.97.21-.41.32-.9.32-1.46zm1.13 0c0 .62-.116 1.17-.346 1.653-.23.484-.525.873-.883 1.17-.36.296-.8.544-1.31.743-.51.2-1.01.34-1.51.42-.5.08-1.03.14-1.58.16l4.88 5.14c.15.15.22.31.22.48 0 .13-.04.23-.13.31-.09.09-.19.13-.33.13-.24 0-.45-.1-.64-.32l-5.33-5.68h-4.97v5c0 .68-.17 1.01-.5 1.01-.42 0-.63-.33-.63-1.01v-13.3c0-.25.02-.4.05-.43.04-.03.18-.05.44-.05h3.85c.75 0 1.35.01 1.81.02.45.01.99.04 1.62.08.63.04 1.13.11 1.5.19.37.08.78.19 1.24.34.46.14.81.33 1.08.56.26.23.51.5.75.82.24.32.41.69.52 1.13.1.44.15.93.15 1.48z"/><path fill="#0A0B09" d="M565.208 352.255h.266c0-.366-.026-.702-.077-1.007-.053-.31-.142-.595-.27-.85l-.03-.06.03.06c-.122-.244-.256-.464-.404-.66-.162-.214-.375-.395-.63-.542-.24-.137-.473-.256-.703-.358l.008.004-.008-.004c-.248-.108-.546-.194-.9-.263-.346-.068-.675-.12-.986-.162-.317-.042-.7-.072-1.157-.095-.455-.023-.876-.035-1.265-.04-.386-.004-.86-.007-1.417-.007h-3.48v7.57h5.246c.7 0 1.31-.02 1.82-.06.53-.04 1.06-.13 1.61-.27h.01l-.01.01c.55-.14 1.01-.34 1.38-.6.37-.26.67-.62.9-1.06l.01-.02-.01.03c.24-.46.35-.99.35-1.59h-.53c0 .54-.1.98-.29 1.35l-.01.03.01-.02c-.19.38-.44.67-.73.88-.29.21-.69.39-1.2.52h.01-.01c-.51.14-1.01.22-1.51.26-.5.04-1.09.06-1.78.06h-4.71v-6.51h2.95c.56 0 1.03 0 1.41.01.39.01.8.02 1.25.04.45.03.82.06 1.12.09.3.04.62.1.96.16.33.06.59.14.79.23l-.01-.01.01.01c.21.09.43.2.65.33.21.12.36.25.47.4.13.17.25.36.35.58.11.2.18.44.23.7l.02.13-.02-.13c.05.27.07.58.07.92h.27zm1.13 0h-.266c0 .587-.108 1.096-.32 1.54l-.02.04.02-.04c-.217.453-.487.81-.812 1.078-.334.276-.743.51-1.23.7l-.02.01.02-.01c-.493.194-.977.328-1.452.404h.003c-.48.08-1 .13-1.55.156l-.58.028 5.29 5.57c.12.12.15.21.15.29l-.05.13-.14.05c-.15 0-.28-.06-.43-.23l-5.4-5.77h-5.35v5.26c0 .32-.04.54-.1.64-.06.1-.06.1-.14.11-.14 0-.17-.03-.24-.12-.06-.1-.11-.3-.11-.61v-13.3c0-.12.01-.21.01-.27l.01-.04-.15-.04.11.11.05-.06-.15-.04.12.11-.11-.11.05.16.07-.04-.11-.11.05.16c.01 0 .14-.02.32-.02h3.85c.75 0 1.36.01 1.8.01.45.01.99.04 1.61.08.62.04 1.11.1 1.46.18.37.08.77.19 1.22.33.43.14.76.31.98.51.25.22.49.48.72.78.22.28.38.62.47 1.03.1.42.15.89.15 1.42h.53c0-.56-.05-1.07-.16-1.54s-.3-.88-.57-1.23c-.25-.32-.51-.61-.79-.85l.01.01v-.01c-.3-.26-.69-.46-1.17-.61-.46-.14-.89-.25-1.27-.34l.01.01c-.39-.09-.9-.15-1.54-.19-.63-.04-1.17-.06-1.63-.07-.45-.01-1.06-.01-1.81-.01h-3.85c-.13 0-.24 0-.33.01l-.13.03-.16.09-.09.16c-.03.13-.04.26-.04.47v13.29c0 .36.05.66.2.89.14.24.42.39.7.38.26.01.51-.16.62-.4.12-.23.15-.51.16-.87v-4.73h4.59l5.25 5.6.2-.18-.2.17c.22.25.51.41.83.41.19 0 .38-.07.51-.2s.2-.32.2-.5c0-.26-.12-.49-.31-.67l-.19.19.19-.19-4.89-5.14-.19.19.02.26c.57-.03 1.1-.08 1.61-.16.52-.08 1.04-.23 1.57-.43l.02-.01-.02.01c.53-.21.99-.47 1.38-.78.39-.32.71-.75.95-1.26.25-.52.37-1.11.37-1.77h-.26z"/><path fill="#1A1918" d="M583.628 361.99l-.012.186-.074.133-.092.08-.14.04-.153.01h-12.81c-.168 0-.267-.03-.3-.08-.03-.05-.045-.18-.045-.39v-14.03l.046-.18.147-.12c.066-.01.166-.02.3-.02h12.562l.133.01.113.02.107.04.08.06.065.08.033.1.014.14c0 .13-.047.23-.14.29-.092.06-.19.1-.292.11-.1.01-.258.01-.47.01h-11.57v5.82h11.423c.46 0 .69.14.69.42 0 .32-.2.48-.597.48H571.13v6.32h11.595c.213 0 .37.01.472.01.1.01.2.04.292.11.09.06.13.16.13.29"/><path fill="#0A0B09" d="M583.628 361.99l-.264-.018-.01.127-.02.04-.014.01-.064.01-.133.01h-12.776l-.137-.01-.006-.01-.05.13.118-.08-.068-.07-.05.13.118-.08-.117.07.13-.05-.013-.03-.117.07.13-.05h-.018l.018-.01h-.018l.018-.01c-.006-.02-.02-.12-.017-.28v-14h-.266l.257.07.02-.09.07-.06-.16-.21.03.26c.04-.01.13-.01.26-.01h12.55l.1.01.08.02.05.02.02.02.01.01.01.03.01.11.26-.03h-.27l-.02.07-.17.06c-.09.01-.24.01-.45.01h-11.83v6.35h11.69c.2 0 .33.04.38.07l.04.09c0 .11-.02.13-.05.15-.03.03-.12.06-.28.06h-11.78v6.85h11.86c.21 0 .36 0 .45.01l.17.06.02.07h.26l-.27-.02.26.02h.26c0-.19-.09-.41-.26-.52l-.15.22.14-.22c-.13-.09-.27-.14-.42-.15-.12-.01-.28-.02-.49-.02h-11.33v-5.79h11.25c.23 0 .44-.04.61-.18.17-.13.25-.35.25-.56 0-.22-.11-.44-.3-.55-.19-.11-.4-.14-.66-.15h-11.15v-5.29h11.31c.21 0 .37 0 .49-.01.15-.01.29-.07.41-.15h-.01v-.01c.17-.11.26-.32.26-.51l-.02-.16v-.03l-.04-.14-.02-.05-.1-.12-.02-.02-.11-.08-.03-.03-.15-.05-.02-.01-.13-.03-.02-.01-.15-.02H570.4c-.14 0-.246.002-.335.02l-.07.01-.204.15-.07.05-.07.26-.01.037v14.07c0 .11.01.2.02.28.01.08.02.15.08.25.08.12.18.15.26.17.09.02.17.02.27.02h12.61c.11 0 .17 0 .24-.01l-.04-.267.03.267.16-.02.02-.01.16-.05.05-.01.14-.12.04-.04.1-.17.03-.05.02-.25v-.015h-.26"/><path fill="#1A1918" d="M604.11 358.324c0 .655-.15 1.242-.445 1.76-.297.518-.69.94-1.176 1.262-.49.323-1.08.59-1.78.803-.7.21-1.42.36-2.16.44-.75.08-1.54.12-2.39.12-1.75 0-3.51-.16-5.29-.48-1.78-.32-3.03-.65-3.75-.98-.24-.12-.36-.29-.36-.52 0-.26.11-.39.34-.39l.18.04c.8.33 2.1.66 3.88.97 1.78.31 3.5.47 5.18.47.93 0 1.77-.06 2.53-.18.76-.12 1.45-.31 2.08-.57.63-.26 1.12-.63 1.47-1.1.35-.47.52-1.03.52-1.68 0-.59-.19-1.09-.56-1.49-.37-.4-.88-.7-1.51-.89-.63-.2-1.36-.35-2.18-.45-.82-.11-1.68-.18-2.59-.22-.91-.04-1.81-.09-2.71-.14-.9-.05-1.77-.14-2.59-.27-.82-.13-1.54-.31-2.18-.55-.63-.24-1.13-.58-1.51-1.04-.37-.46-.55-1.02-.55-1.67 0-.67.15-1.25.46-1.75.3-.51.71-.92 1.21-1.23.5-.31 1.11-.56 1.82-.76.72-.2 1.44-.33 2.17-.41.73-.08 1.52-.11 2.38-.11 1.54 0 3.07.13 4.56.4 1.49.26 2.6.57 3.34.91.14.06.21.18.21.36 0 .13-.05.25-.13.35-.09.1-.21.15-.35.15l-.23-.05c-.93-.38-2.06-.68-3.38-.91-1.32-.23-2.65-.34-3.99-.34-.97 0-1.86.05-2.66.16s-1.53.28-2.2.52c-.67.24-1.19.58-1.56 1.02-.37.44-.56.97-.56 1.58 0 .65.3 1.17.9 1.55.6.37 1.38.63 2.34.76s2.03.22 3.19.28c1.17.05 2.33.14 3.5.24 1.16.11 2.23.28 3.19.51s1.74.64 2.34 1.21c.6.57.91 1.31.91 2.21"/><path fill="#0A0B09" d="M604.11 358.324h-.266c0 .616-.138 1.153-.41 1.628-.278.485-.64.872-1.092 1.172-.46.307-1.028.566-1.704.772-.68.208-1.382.353-2.11.435-.733.09-1.52.13-2.36.13-1.73 0-3.475-.15-5.24-.47-1.77-.31-3.007-.64-3.68-.96l-.113.24.116-.24c-.17-.09-.2-.15-.2-.28l.01-.09.01-.02h.06v-.26l-.05.26.19.04.06-.26-.1.25c.84.36 2.15.68 3.94 1 1.8.32 3.54.48 5.23.48.94 0 1.8-.06 2.58-.18s1.49-.31 2.15-.58l.02-.01-.02.01c.67-.28 1.2-.67 1.58-1.18.39-.51.58-1.14.58-1.83 0-.65-.21-1.22-.63-1.67-.41-.44-.95-.76-1.62-.96-.65-.2-1.39-.35-2.22-.46h.01c-.82-.1-1.69-.18-2.6-.22-.9-.04-1.81-.08-2.71-.13-.89-.05-1.74-.13-2.55-.26h.01c-.8-.13-1.51-.3-2.12-.53l-.02-.01.02.01c-.6-.22-1.05-.54-1.39-.95-.33-.41-.49-.9-.49-1.5 0-.63.14-1.16.42-1.62.29-.47.66-.85 1.12-1.13h.01c.47-.29 1.06-.53 1.76-.72.7-.19 1.41-.32 2.13-.39s1.5-.11 2.36-.11c1.53 0 3.04.13 4.51.4 1.48.26 2.58.57 3.28.89h.01c.05.04.04.01.05.12l-.07.18-.14.06v.27l.06-.26-.23-.06-.06.26.1-.24c-.95-.39-2.09-.7-3.43-.92h-.01.01c-1.33-.23-2.67-.34-4.03-.34-.98 0-1.88.06-2.69.17-.81.11-1.56.29-2.25.54-.7.25-1.26.62-1.67 1.1-.41.49-.62 1.09-.62 1.75 0 .74.37 1.37 1.03 1.77l.04.03-.05-.03c.64.41 1.46.67 2.45.81.97.14 2.04.23 3.21.29 1.16.06 2.32.14 3.48.25 1.16.11 2.21.27 3.15.51.93.22 1.66.61 2.23 1.14.55.52.82 1.17.82 2.02h.53c0-.96-.33-1.79-.99-2.41l.02.02-.02-.02c-.64-.61-1.46-1.03-2.46-1.27-.97-.24-2.05-.41-3.23-.52-1.16-.11-2.33-.19-3.5-.25-1.15-.05-2.21-.15-3.16-.28-.93-.13-1.68-.37-2.24-.72l-.05-.04.06.04c-.54-.35-.77-.75-.78-1.32 0-.55.17-1.01.5-1.41.34-.39.82-.71 1.45-.94.65-.23 1.37-.4 2.15-.51.78-.11 1.66-.16 2.62-.16 1.32 0 2.64.11 3.94.33h.01-.01c1.31.22 2.41.52 3.32.89l.02.01.25.06.03.01h.03c.2 0 .41-.09.54-.243.13-.14.2-.334.2-.525.01-.246-.13-.51-.37-.604l-.11.243.11-.24c-.77-.36-1.9-.67-3.41-.94-1.51-.26-3.04-.4-4.61-.4-.87 0-1.67.04-2.41.12-.74.07-1.48.21-2.21.41-.73.2-1.37.46-1.89.79-.54.33-.97.77-1.3 1.31-.33.55-.5 1.18-.5 1.89s.21 1.33.62 1.83c.4.49.95.87 1.62 1.12l.03.01-.03-.02c.66.24 1.4.43 2.23.56h.01c.83.13 1.7.22 2.61.27.9.05 1.81.09 2.71.13.9.04 1.75.11 2.56.22.81.1 1.52.25 2.14.44.6.18 1.05.46 1.39.81.32.35.48.77.48 1.306 0 .6-.16 1.094-.47 1.515-.32.43-.76.76-1.35 1.01l.02-.01-.02.01c-.61.25-1.28.44-2.023.56-.74.12-1.57.176-2.49.176-1.66 0-3.37-.15-5.134-.47-1.77-.31-3.05-.63-3.82-.96l-.02-.01-.21-.04h-.053c-.16 0-.34.05-.46.19s-.16.3-.16.46c-.01.33.21.62.51.76.76.36 2.02.68 3.81 1 1.8.32 3.57.48 5.33.48.86 0 1.67-.04 2.42-.13.76-.08 1.5-.23 2.21-.45.72-.22 1.33-.49 1.84-.83.53-.35.95-.8 1.26-1.35.32-.56.48-1.2.48-1.9h-.26"/><path fill="#1A1918" d="M621.375 361.99l-.013.186-.073.133-.1.08-.14.04-.16.01h-12.81c-.17 0-.27-.03-.3-.08-.03-.05-.05-.18-.05-.39v-14.03l.04-.18.14-.12c.06-.01.16-.02.3-.02h12.57l.13.01.11.02.1.04.08.06.06.08.03.1.01.14c0 .13-.05.23-.14.29-.09.06-.19.1-.29.11-.11.01-.26.01-.48.01h-11.56v5.82h11.43c.46 0 .69.14.69.42 0 .32-.2.48-.6.48h-11.51v6.32h11.59c.22 0 .37.01.48.01.1.01.2.04.29.11.1.06.14.16.14.29"/><path fill="#0A0B09" d="M621.375 361.99l-.265-.018-.01.127-.02.04-.014.01-.063.01-.134.01h-12.78l-.14-.01-.01-.01-.05.13.11-.08-.07-.07-.05.13.11-.08-.12.07.13-.05-.02-.03-.12.07.13-.05h-.02l.02-.01h-.02l.02-.01c-.01-.02-.02-.12-.02-.28v-14h-.26l.25.07.02-.09.07-.06-.16-.21.03.26c.04-.01.14-.01.26-.01h12.55l.1.01.08.02.05.02.02.02.01.01.01.03.01.11.26-.03h-.26l-.02.07h.01l-.17.06c-.09.01-.24.01-.45.01h-11.8v6.35h11.68c.2 0 .33.04.37.07l.04.09c0 .11-.02.13-.05.15-.03.03-.12.06-.28.06H608.6v6.85h11.86c.21 0 .36 0 .45.01l.164.06h.003l.02.07h.26l-.266-.02.27.02h.27c.01-.19-.08-.41-.26-.52l-.14.22.15-.22c-.13-.09-.27-.14-.42-.15-.11-.01-.27-.02-.49-.02h-11.32v-5.79h11.25c.23 0 .45-.04.62-.18.17-.13.25-.35.25-.56.01-.22-.11-.44-.3-.55-.18-.11-.4-.14-.66-.15h-11.15v-5.29h11.31c.22 0 .38 0 .5-.01.15-.01.29-.07.42-.15l.01-.01c.17-.11.27-.32.26-.51l-.01-.16v-.03l-.04-.14-.01-.05-.1-.12-.02-.02-.1-.08-.03-.02-.14-.06h-.01l-.13-.03-.02-.01-.15-.017h-12.6c-.14 0-.24 0-.33.02l-.07.01-.21.15-.07.06-.07.26-.01.037v14.07c0 .12.01.21.02.29.02.08.02.15.08.25.08.12.18.15.26.17.09.02.17.03.27.03h12.61c.11 0 .17 0 .24-.01l-.04-.26.03.27.15-.02.02-.01.16-.04.06-.02.14-.12.04-.04.1-.17.03-.05.02-.24v-.02h-.26"/><path fill="#1A1918" d="M627.51 357.13h8.687l-4.344-7.93-4.343 7.93zm-3.665 4.422l7.318-13.215c.15-.283.265-.467.345-.55.08-.085.195-.127.345-.127.124 0 .232.046.326.14.09.092.21.27.36.537l7.33 13.228c.1.168.14.34.14.518 0 .16-.04.283-.13.372-.09.09-.19.133-.33.133-.28 0-.52-.195-.73-.584l-2.26-4.09h-9.46l-2.29 4.143c-.18.354-.42.53-.72.53s-.44-.194-.44-.583c0-.107.05-.257.16-.452z"/><path fill="#0A0B09" d="M627.51 357.13v.264h9.134l-4.79-8.746-4.79 8.746h.446v-.265l.233.12 4.11-7.51 3.896 7.11h-8.24v.26l.23.12-.24-.13zm-3.665 4.422l.232.128 7.32-13.218c.143-.274.262-.453.303-.493v-.01c.02-.02.05-.04.153-.05l.14.06.186-.19-.19.18c.06.06.18.22.32.48l.23-.13-.23.12 7.33 13.23c.07.13.11.25.11.38 0 .12-.03.16-.06.19l-.13.05-.23-.09c-.09-.07-.18-.18-.28-.36l-2.34-4.23h-9.77l-2.36 4.28c-.18.31-.32.38-.49.39-.09-.01-.1-.02-.12-.04-.02-.03-.06-.12-.06-.28-.01-.02.03-.15.12-.32l-.23-.13-.24-.13c-.12.21-.19.38-.19.58 0 .22.04.43.16.6.12.17.34.26.54.25.41 0 .75-.27.95-.67l-.23-.13.23.13 2.2-4.01h9.14l2.19 3.96-.01-.01c.12.21.25.39.41.52.16.13.35.2.55.2.19 0 .39-.07.52-.22.14-.15.2-.35.2-.56 0-.23-.06-.45-.18-.65l-.23.13.23-.13-7.33-13.24c-.16-.28-.28-.47-.4-.6l-.01-.01c-.13-.14-.32-.22-.51-.22-.2 0-.4.06-.54.21l.01-.01c-.12.13-.23.32-.39.61l.23.12-.24-.13-7.32 13.21.23.13z"/><path fill="#1A1918" d="M654.843 352.255c0-.354-.024-.675-.073-.963-.05-.287-.13-.547-.246-.776-.115-.23-.24-.437-.378-.62-.138-.18-.32-.337-.552-.47-.23-.133-.456-.247-.677-.345-.22-.09-.502-.18-.843-.24-.34-.06-.664-.12-.97-.16-.306-.04-.684-.07-1.136-.09-.45-.02-.87-.03-1.255-.04h-4.634v7.04h4.98c.69 0 1.29-.02 1.8-.06.51-.04 1.02-.13 1.55-.26.52-.13.95-.32 1.29-.55.33-.23.6-.55.81-.97.21-.41.32-.9.32-1.46zm1.13 0c0 .62-.116 1.17-.347 1.653-.23.484-.524.873-.882 1.17-.36.296-.793.544-1.302.743-.51.2-1.012.34-1.508.42-.496.08-1.022.14-1.58.16l4.888 5.14c.15.15.225.31.225.48 0 .13-.042.23-.126.31-.08.09-.19.13-.32.13-.24 0-.45-.1-.63-.32l-5.32-5.68h-4.97v5c0 .68-.17 1.01-.5 1.01-.41 0-.62-.33-.62-1.01v-13.3c0-.25.02-.4.05-.43.04-.03.18-.05.44-.05h3.85c.75 0 1.36.01 1.81.02.46.01 1 .04 1.62.08.63.04 1.13.11 1.5.19.38.08.79.19 1.25.34.46.14.82.33 1.08.56.26.23.51.5.76.82.25.32.42.69.52 1.13.1.44.15.93.15 1.48z"/><path fill="#0A0B09" d="M654.843 352.255h.265c0-.366-.025-.702-.077-1.007-.05-.31-.14-.595-.27-.85l-.01-.03.02.03c-.12-.244-.25-.464-.4-.66-.16-.214-.37-.395-.63-.542-.24-.137-.47-.256-.7-.358l.02.007-.01-.007c-.25-.108-.54-.194-.9-.263-.34-.068-.67-.12-.98-.162-.31-.042-.7-.072-1.15-.095-.45-.023-.87-.035-1.26-.04-.38-.004-.86-.007-1.41-.007h-3.48v7.57h5.25c.7 0 1.3-.02 1.82-.06.53-.04 1.06-.13 1.6-.27.55-.14 1.01-.34 1.38-.6.37-.26.67-.62.9-1.06.24-.45.35-.99.35-1.59h-.53c0 .54-.1.98-.29 1.35l-.01.03.01-.02c-.2.38-.44.67-.74.88-.3.21-.7.39-1.2.52-.51.14-1.02.22-1.51.26-.5.04-1.09.06-1.78.06h-4.72v-6.51h2.95c.56 0 1.03.01 1.41.01.38.01.8.02 1.25.04.45.03.82.06 1.12.09.3.04.62.1.95.16.33.07.59.15.79.23.21.1.43.21.65.33.2.12.36.26.47.41.13.17.24.36.35.58l.02.03-.01-.03c.1.21.18.44.22.71l.04.26-.04-.26c.05.27.07.58.07.92h.27zm1.13 0h-.266c0 .587-.11 1.096-.32 1.54l-.02.04.02-.04c-.217.453-.487.81-.812 1.078l-.05.042.05-.042c-.335.276-.743.51-1.23.7-.494.194-.977.328-1.453.404-.485.08-1.002.13-1.55.156l-.58.028 5.29 5.57h.002c.116.12.147.21.148.29l-.048.13-.14.05c-.155 0-.284-.06-.436-.23h-.002l-5.41-5.77h-5.346v5.26c.002.32-.044.54-.098.64-.063.1-.067.1-.14.11-.14 0-.177-.03-.244-.12-.064-.1-.118-.3-.116-.61v-13.3c0-.12.004-.21.01-.27l.01-.04-.157-.04.112.11.044-.06-.15-.04.11.11-.11-.11.05.16.07-.04-.11-.11.05.16c.01 0 .14-.02.32-.02h3.85c.75 0 1.36.01 1.8.01.45.01.99.04 1.61.08.62.04 1.11.1 1.46.18h.01-.01c.37.08.78.19 1.23.33.43.14.76.31.98.51l.01.01c.25.22.49.48.72.78l.02.02-.02-.02c.22.28.38.62.47 1.03.1.41.15.89.15 1.42h.53c0-.57-.05-1.08-.16-1.54-.11-.47-.29-.88-.56-1.23-.25-.33-.51-.61-.79-.86-.3-.27-.69-.47-1.17-.62-.46-.14-.88-.25-1.26-.34-.39-.09-.9-.15-1.54-.2-.63-.04-1.17-.06-1.63-.07-.45-.01-1.05-.01-1.81-.01h-3.85c-.13 0-.24.01-.33.02l-.13.02-.16.09-.09.16c-.03.13-.04.27-.04.47v13.29c0 .37.05.66.2.9.14.24.42.39.7.38.26.01.51-.16.62-.39.12-.23.16-.52.16-.88v-4.73H649l5.247 5.6.195-.18-.2.18c.22.26.516.41.836.41.19 0 .38-.07.513-.2s.21-.32.21-.5c.01-.25-.11-.48-.3-.67l-.19.19.2-.18-4.89-5.14-.19.18.01.27c.56-.02 1.1-.08 1.61-.16H652h.007c.517-.08 1.04-.22 1.563-.43.53-.2.99-.47 1.374-.78.39-.33.71-.75.953-1.26.25-.53.37-1.12.37-1.77H656z"/><path fill="#1A1918" d="M661.59 360.92c-1.638-1.207-2.457-3.162-2.457-5.862s.82-4.656 2.457-5.865c1.638-1.208 4.14-1.812 7.504-1.812 2.302 0 4.516.44 6.64 1.32.266.12.4.29.4.51 0 .11-.04.2-.12.28-.08.08-.182.12-.306.12-.062 0-.146-.02-.252-.06-2.037-.85-4.158-1.27-6.362-1.27-3.143 0-5.4.54-6.773 1.6-1.37 1.07-2.05 2.8-2.05 5.2 0 2.4.69 4.13 2.06 5.2 1.37 1.07 3.63 1.6 6.77 1.6 2.21 0 4.33-.42 6.36-1.27.11-.03.19-.05.24-.05.13 0 .24.04.33.12.09.08.13.17.13.28 0 .21-.13.38-.41.49-2.12.88-4.34 1.32-6.64 1.32-3.36 0-5.86-.6-7.5-1.81"/><path fill="#0A0B09" d="M661.59 360.92l.158-.213c-1.556-1.15-2.346-2.998-2.35-5.65.004-2.65.794-4.5 2.35-5.65 1.564-1.157 4.01-1.762 7.346-1.76 2.268 0 4.446.43 6.54 1.293l.1-.245-.105.244c.1.04.16.09.19.13l.04.13-.04.09-.12.04-.15-.05c-2.07-.87-4.23-1.3-6.47-1.3-3.17 0-5.48.53-6.94 1.65l.21-.17-.21.16c-1.46 1.13-2.17 2.96-2.16 5.41-.01 2.44.7 4.28 2.16 5.4 1.45 1.12 3.76 1.65 6.93 1.66 2.24 0 4.39-.43 6.46-1.3l-.1-.25.08.25c.09-.03.15-.04.15-.04l.14.05v.01l-.01-.01.04.09-.04.11c-.03.04-.1.09-.21.13-2.09.86-4.27 1.29-6.54 1.29-3.33 0-5.78-.61-7.34-1.77l-.16.21-.16.21c1.71 1.26 4.26 1.86 7.66 1.86 2.33 0 4.58-.45 6.74-1.34h.01c.16-.07.3-.16.41-.28.1-.13.16-.29.16-.46 0-.18-.08-.36-.21-.47-.14-.13-.32-.2-.51-.19-.11 0-.21.02-.33.06h-.02c-2.01.84-4.09 1.25-6.26 1.25-3.12 0-5.32-.54-6.61-1.55l-.09-.07.08.062c-1.29-1-1.95-2.63-1.96-4.99 0-2.35.66-3.98 1.96-4.99 1.29-1 3.49-1.54 6.61-1.54 2.17 0 4.25.42 6.26 1.26h-.01c.12.05.23.09.35.09.18 0 .37-.06.5-.19.12-.12.2-.296.2-.47 0-.16-.06-.33-.16-.458-.1-.13-.24-.22-.4-.29h-.01c-2.16-.89-4.41-1.33-6.74-1.33-3.4 0-5.95.61-7.66 1.87-1.73 1.27-2.57 3.33-2.57 6.08-.01 2.746.84 4.81 2.56 6.074l.16-.22"/><path fill="#1A1918" d="M679.386 361.525V348.59c0-.62.213-.93.638-.93.328 0 .49.31.49.93v5.816h11.755v-5.816c0-.196 0-.35.02-.465.02-.115.07-.222.16-.32.08-.096.21-.145.37-.145.24 0 .39.082.46.245.07.164.1.392.1.685v12.935c0 .196-.01.35-.03.465-.02.115-.07.222-.16.32-.09.096-.21.145-.37.145-.24 0-.4-.082-.47-.246-.07-.17-.11-.4-.11-.69v-6.3H680.5v6.29c0 .25-.042.47-.126.66-.086.18-.217.27-.393.27-.24 0-.41-.09-.49-.25-.08-.17-.12-.4-.12-.68"/><path fill="#0A0B09" d="M679.386 361.525h.265V348.59c0-.28.06-.463.12-.548.06-.08.11-.11.26-.117l.14.09c.05.09.1.288.09.575v6.08h12.29v-6.08c0-.187.01-.33.03-.423v-.002l.09-.18c.04-.035.07-.057.18-.06l.17.03.05.056.01.01v-.01c.05.11.09.31.09.58v12.94c0 .19-.01.33-.02.43l-.09.18v.01c-.03.04-.06.06-.17.06-.09 0-.14-.01-.17-.03l-.05-.05c-.05-.11-.09-.3-.09-.57V355H680.3v6.56c0 .23-.04.406-.1.544l-.07.1-.08.02c-.095 0-.156-.014-.19-.03l-.06-.065-.01-.03.01.02c-.057-.12-.096-.31-.096-.57h-.53c.007.31.05.57.15.79.06.13.17.24.3.31.13.06.28.09.43.09.136 0 .27-.04.385-.12.11-.08.19-.19.25-.31.1-.23.15-.49.15-.77v-6.03h11.22v6.03c0 .31.03.57.12.79l.01.01-.01-.02c.05.13.16.24.29.31.13.06.27.09.42.09.21 0 .42-.07.57-.23v-.01l-.01.01c.12-.13.2-.29.23-.46.02-.14.03-.3.03-.51V348.6c0-.317-.04-.576-.13-.79-.06-.136-.17-.25-.29-.316-.13-.068-.27-.093-.42-.093-.21 0-.43.08-.57.23-.12.13-.2.29-.23.46-.02.14-.03.31-.03.51v5.55H680.8v-5.55c0-.33-.04-.6-.154-.82-.11-.22-.354-.38-.605-.37-.27 0-.54.12-.69.35-.15.23-.2.51-.21.85v12.94h.27"/><path fill="#E98577" d="M257.7 155.534l64.097 32.05v72.57l-64.097 32.05-64.097-32.05v-72.57l64.097-32.05"/><path fill="#DB352A" d="M257.7 155.534l-1.566 3.13 62.163 31.082v68.246L257.7 288.29l-60.597-30.298v-68.246l62.162-31.08-1.565-3.132-1.566 3.13 1.566-3.13-1.566-3.13-64.097 32.048c-1.188.594-1.934 1.803-1.934 3.13v72.573c0 1.33.746 2.537 1.934 3.13l64.097 32.05c.984.49 2.148.49 3.13 0l64.1-32.05c1.187-.593 1.933-1.8 1.933-3.13v-72.572c0-1.328-.746-2.537-1.934-3.13l-64.098-32.05c-.983-.49-2.147-.49-3.13 0l1.565 3.13"/><path fill="#FFF" d="M46.444 163.28l71.652-1.222 33.558 64.345-42.01 58.056-71.655 1.22-33.56-64.35 42.01-58.06"/><path fill="#DB352A" d="M46.444 163.28l.06 3.5 69.49-1.186 31.557 60.51-39.71 54.885-67.74 1.15-31.56-60.51 40.74-56.3-2.83-2.05.06 3.5-.06-3.5-2.83-2.06L1.6 219.28c-.78 1.076-.883 2.49-.27 3.67l33.556 64.35c.614 1.178 1.835 1.904 3.163 1.88l71.65-1.222c1.1-.018 2.13-.557 2.77-1.447l42.01-58.05c.78-1.07.88-2.49.27-3.67l-33.55-64.35c-.62-1.18-1.84-1.9-3.17-1.88l-71.65 1.23c-1.1.02-2.14.56-2.78 1.45l2.83 2.05"/><path fill="#E98577" d="M442.97 152.01l60.652 38.174-7.107 72.223-66.93 25.616-60.65-38.174 7.107-72.23 66.93-25.62"/><path fill="#0A0B09" d="M442.97 152.01l-1.863 2.963 58.82 37.02-6.683 67.92-63.275 24.216-57.34-36.09 6.68-67.92 64.91-24.84-1.25-3.27-1.87 2.96 1.86-2.96-1.25-3.27-66.93 25.61c-1.24.47-2.1 1.6-2.23 2.92l-7.11 72.22c-.13 1.32.49 2.59 1.62 3.3l60.64 38.17c.93.58 2.09.7 3.12.31l66.93-25.62c1.24-.48 2.1-1.61 2.23-2.93l7.1-72.23c.13-1.33-.5-2.6-1.62-3.31l-60.65-38.17c-.93-.59-2.09-.7-3.12-.31l1.25 3.27"/><path fill="#DB352A" d="M585.052 159.864l71.63-2.2 34.435 63.88L649.9 280.17l-71.628 2.202-34.435-63.883 41.215-58.63"/><path fill="#0A0B09" d="M585.052 159.864l.108 3.5 69.467-2.135 32.383 60.07-38.967 55.42-67.717 2.08-32.38-60.08 39.97-56.86-2.864-2.02.108 3.5-.108-3.5-2.863-2.02-41.22 58.62c-.77 1.08-.85 2.5-.22 3.67L575.18 284c.63 1.17 1.86 1.876 3.19 1.835l71.63-2.2c1.1-.033 2.12-.585 2.75-1.484l41.21-58.62c.76-1.08.84-2.5.21-3.67L659.763 156c-.63-1.17-1.86-1.877-3.19-1.836l-71.63 2.2c-1.096.034-2.12.586-2.753 1.485l2.86 2.01"/><g fill="#1A1918"><path d="M12.764 6.108L65.55 85.46l52.79-79.352c1.587-2.44 3.32-3.66 5.193-3.66 1.077 0 1.97.44 2.68 1.32.71.88 1.066 1.972 1.066 3.277v84.29c0 1.987-.23 3.477-.69 4.47-.46.993-1.45 1.49-2.98 1.49-2.39 0-3.58-1.987-3.58-5.96V15.728L69.72 89.97c-1.36 1.93-2.752 2.895-4.17 2.895-1.533 0-2.925-.964-4.173-2.895L11.06 15.73v75.604c0 3.974-1.19 5.96-3.575 5.96-1.532 0-2.526-.496-2.98-1.49-.455-.992-.68-2.482-.68-4.47V7.044c0-1.304.353-2.397 1.063-3.277.71-.88 1.603-1.32 2.682-1.32 1.816 0 3.547 1.22 5.194 3.66"/><path d="M12.764 6.108l-1.4.93L65.55 88.493l54.193-81.46.005-.008c.71-1.096 1.418-1.846 2.05-2.29.64-.443 1.17-.603 1.736-.608.31.002.53.058.736.158.204.102.41.26.638.538l-.002-.002c.444.57.685 1.22.693 2.23v84.29c0 1.86-.24 3.17-.53 3.77-.09.17-.13.21-.31.32-.19.1-.56.2-1.15.2-.37 0-.58-.07-.75-.16-.13-.07-.24-.16-.37-.32-.19-.24-.4-.65-.55-1.29-.15-.63-.24-1.47-.24-2.5v-81.1L68.33 89.03l1.39.942-1.37-.968c-.603.854-1.176 1.432-1.65 1.76-.484.33-.83.42-1.15.423-.41-.005-.772-.11-1.236-.424-.457-.315-.987-.867-1.526-1.703l-.01-.016-53.4-78.788v81.078c0 .91-.068 1.674-.19 2.28-.18.914-.476 1.424-.714 1.654-.122.12-.232.19-.38.25-.145.055-.338.096-.61.096-.59.002-.962-.1-1.144-.195-.184-.11-.222-.15-.308-.32-.292-.61-.538-1.91-.53-3.77V7.04c.01-1.006.248-1.66.692-2.22.226-.28.432-.436.636-.537.207-.1.426-.156.738-.158.53.004 1.05.16 1.7.61.64.447 1.365 1.208 2.11 2.31l-.005-.003-.003-.005 1.4-.936 1.39-.94c-.906-1.33-1.87-2.4-2.96-3.17C10.116 1.22 8.862.76 7.57.77c-.767 0-1.534.162-2.22.502-.69.337-1.287.84-1.77 1.442-.976 1.198-1.444 2.73-1.436 4.332v84.29c.01 2.116.214 3.788.834 5.17V96.5c.367.83 1.052 1.53 1.862 1.924.81.402 1.7.548 2.645.55.827 0 1.654-.18 2.38-.584.545-.3 1.02-.72 1.395-1.21.567-.73.925-1.61 1.154-2.58.227-.97.326-2.05.327-3.26V21.2l47.25 69.713 1.39-.943-1.41.912c.71 1.095 1.5 1.99 2.43 2.64.93.65 2.03 1.028 3.15 1.023 1.1.003 2.16-.388 3.07-1.023.92-.637 1.72-1.507 2.48-2.583l.01-.01 47.26-69.73v70.13c0 1.07.08 2.05.26 2.93.27 1.32.76 2.48 1.64 3.37.44.44.97.78 1.55 1.01.58.22 1.2.32 1.82.32.95 0 1.84-.15 2.65-.55.81-.4 1.5-1.1 1.87-1.92.62-1.38.83-3.06.84-5.17V7.04c.01-1.602-.46-3.132-1.44-4.33V2.7c-.48-.6-1.07-1.1-1.76-1.44-.69-.34-1.45-.502-2.22-.5-1.31-.005-2.58.446-3.67 1.223-1.1.776-2.05 1.856-2.93 3.2l.01-.006-51.4 77.243-51.4-77.248v-.004l-1.39.94m157.59 57.045h55.69l-27.84-50.83-27.84 50.83zm-23.5 28.352l46.9-84.715c.97-1.816 1.71-2.994 2.22-3.534.51-.54 1.25-.81 2.21-.81.8 0 1.49.3 2.09.895.59.6 1.37 1.75 2.34 3.45l47 84.8c.62 1.08.93 2.19.93 3.32 0 1.03-.27 1.82-.81 2.39s-1.24.85-2.09.85c-1.76 0-3.32-1.25-4.69-3.74L228.5 68.18h-60.62l-14.64 26.56c-1.192 2.27-2.725 3.41-4.6 3.41-1.872 0-2.81-1.25-2.81-3.745 0-.68.34-1.65 1.02-2.9z"/><path d="M170.36 63.153v1.68h58.518L198.2 8.827l-30.676 56.006h2.836v-1.68l1.473.807L198.2 15.82l25.006 45.653H170.36v1.68l1.473.807-1.473-.807zm-23.5 28.352l1.47.814 46.92-84.73.008-.02c.47-.89.878-1.6 1.216-2.14.334-.54.613-.91.734-1.03h-.002c.075-.08.147-.13.294-.19.146-.06.374-.1.7-.1.19 0 .322.03.457.09.133.06.275.15.442.31.17.17.47.54.83 1.06.35.52.77 1.2 1.23 2.02l-.01-.01 47 84.8.01.01c.49.86.7 1.65.71 2.48 0 .36-.05.63-.12.82-.07.19-.14.3-.24.4l.01-.02-.02.01c-.12.12-.22.19-.35.24-.13.05-.28.09-.52.09-.48-.01-.89-.14-1.44-.57-.54-.43-1.16-1.18-1.77-2.3L229.5 66.49h-62.607l-15.13 27.45-.01.013c-.51.978-1.053 1.616-1.555 1.985-.51.368-.96.515-1.555.52-.285 0-.452-.045-.548-.087l-.164-.11c-.07-.07-.17-.22-.26-.52-.09-.3-.15-.75-.15-1.34 0-.06.03-.31.16-.67.13-.36.35-.84.66-1.41v.01l-1.47-.81-1.47-.8c-.37.68-.66 1.31-.87 1.91-.21.6-.35 1.18-.35 1.8 0 .73.07 1.41.23 2.04.24.95.71 1.86 1.5 2.49.39.32.85.55 1.32.69.47.15.96.21 1.45.21 1.28.01 2.53-.41 3.56-1.18 1.03-.76 1.85-1.83 2.53-3.12l-1.48-.78 1.47.81 14.17-25.7h58.64l13.99 25.35v-.01c.76 1.38 1.6 2.5 2.62 3.32 1.01.82 2.26 1.32 3.54 1.31.62 0 1.23-.1 1.8-.33.57-.23 1.09-.59 1.51-1.03.45-.46.78-1.03.98-1.64.21-.6.3-1.24.3-1.9 0-1.44-.41-2.86-1.16-4.16l-1.46.84 1.47-.81-47-84.81V6c-.5-.88-.96-1.63-1.38-2.26-.43-.63-.82-1.136-1.24-1.556-.43-.43-.93-.79-1.49-1.03-.56-.24-1.17-.36-1.78-.36-.64 0-1.26.09-1.85.307-.59.22-1.14.57-1.58 1.03-.39.42-.73.91-1.14 1.55-.4.64-.84 1.42-1.33 2.35l1.48.79-1.47-.81-46.92 84.72v.01l1.48.81zm198.72-59.6c0-2.27-.157-4.327-.468-6.172-.313-1.843-.838-3.504-1.575-4.98-.738-1.476-1.547-2.796-2.427-3.96-.88-1.162-2.058-2.17-3.533-3.022-1.476-.85-2.924-1.58-4.342-2.21-1.42-.62-3.222-1.15-5.406-1.57-2.19-.42-4.26-.76-6.22-1.02s-4.39-.45-7.28-.59c-2.9-.14-5.58-.22-8.05-.25-2.47-.03-5.49-.04-9.07-.04h-20.6V53.2h31.93c4.42 0 8.27-.13 11.53-.384 3.26-.255 6.58-.822 9.96-1.703 3.37-.88 6.13-2.07 8.26-3.578 2.12-1.506 3.87-3.58 5.23-6.22 1.36-2.64 2.04-5.773 2.04-9.406zm7.238 0c0 3.975-.74 7.508-2.214 10.6-1.477 3.096-3.363 5.593-5.662 7.493-2.3 1.903-5.08 3.49-8.344 4.77-3.265 1.275-6.485 2.17-9.663 2.68-3.18.51-6.557.852-10.132 1.022l31.33 32.95c.966.966 1.45 1.987 1.45 3.065 0 .795-.27 1.462-.81 2-.54.54-1.234.81-2.086.81-1.532 0-2.895-.682-4.086-2.044l-34.14-36.44h-31.84v32.02c0 4.32-1.08 6.47-3.23 6.47-2.67 0-4-2.15-4-6.47V5.6c0-1.646.11-2.583.34-2.81.23-.227 1.16-.34 2.81-.34h24.69c4.83 0 8.69.03 11.58.084 2.9.057 6.36.213 10.39.468 4.03.256 7.24.654 9.62 1.192 2.39.54 5.04 1.264 7.96 2.172 2.93.908 5.22 2.1 6.9 3.575 1.68 1.47 3.29 3.22 4.86 5.23 1.56 2.02 2.67 4.43 3.32 7.24.65 2.81.98 5.98.98 9.5z"/><path d="M345.58 31.906h1.68c0-2.347-.162-4.496-.49-6.452l.004.03-.005-.032c-.34-1.985-.91-3.808-1.73-5.45l-.02-.028.01.026c-.78-1.555-1.64-2.963-2.59-4.22l-.01-.012.01.01c-1.04-1.365-2.4-2.518-4.04-3.462l.03.02-.04-.02c-1.53-.88-3.03-1.644-4.51-2.296-1.58-.694-3.49-1.244-5.76-1.687-2.22-.43-4.33-.778-6.32-1.04-2.03-.262-4.49-.463-7.42-.606-2.91-.142-5.62-.23-8.11-.258-2.48-.03-5.51-.05-9.09-.05H274.9v48.49h33.61c4.46 0 8.344-.13 11.67-.39 3.366-.27 6.786-.85 10.253-1.75 3.516-.91 6.46-2.17 8.804-3.83l.023-.01-.02.01c2.37-1.68 4.3-3.98 5.76-6.82 1.51-2.92 2.23-6.34 2.23-10.18h-3.36c0 3.42-.64 6.28-1.853 8.63-1.26 2.44-2.83 4.28-4.71 5.61-1.91 1.35-4.48 2.48-7.715 3.32-3.29.86-6.514 1.4-9.67 1.65-3.21.25-7.01.38-11.41.38h-30.25V9.74h18.93c3.57 0 6.59.018 9.05.046 2.44.024 5.104.11 7.98.25 2.864.14 5.25.335 7.145.582 1.92.25 3.96.59 6.11 1.01 2.1.41 3.8.91 5.057 1.47h-.006c1.36.6 2.75 1.31 4.18 2.13l-.034-.02.033.02c1.314.76 2.31 1.63 3.034 2.59l.02.027-.02-.027c.81 1.073 1.57 2.305 2.27 3.7l.01.013-.01-.02c.66 1.31 1.13 2.81 1.42 4.51v-.03l.01.03c.3 1.73.45 3.7.45 5.89h1.68zm7.238 0h-1.68c0 3.767-.698 7.037-2.05 9.877-1.39 2.91-3.13 5.193-5.217 6.92l.04-.03-.03.03c-2.14 1.77-4.76 3.276-7.88 4.5-3.16 1.236-6.27 2.096-9.32 2.586-3.11.5-6.42.83-9.94 1l-3.67.17 33.88 35.62.02.01c.37.37.61.72.76 1.02.15.3.2.57.2.86 0 .2-.03.34-.08.46-.05.11-.11.22-.23.34-.12.11-.21.17-.34.23-.13.05-.3.08-.55.08-.52-.01-.96-.11-1.42-.34-.45-.23-.92-.59-1.4-1.14l-.02-.03-34.65-36.99h-34.25v33.7c.01 2.01-.28 3.43-.63 4.1-.17.34-.33.49-.44.56-.11.07-.22.12-.48.12-.44 0-.73-.08-.95-.2-.16-.09-.31-.21-.46-.4-.23-.28-.46-.75-.63-1.45-.17-.7-.27-1.62-.27-2.73V5.6c0-.783.03-1.38.08-1.735.02-.175.05-.29.05-.3l-.51-.15.48.234.04-.09-.51-.15.47.23-1.11-.55.88.87c.15-.15.21-.27.24-.33l-1.11-.55.87.87-.88-.88.55 1.12c.07-.03.18-.09.33-.24l-.88-.88.55 1.12-.26-.53.18.56.09-.04-.26-.53.18.56s.24-.06.59-.08c.36-.03.85-.05 1.45-.05h24.69c4.82 0 8.67.03 11.55.08 2.86.05 6.3.21 10.32.46 3.97.25 7.11.65 9.36 1.15h-.01.01c2.33.53 4.94 1.24 7.83 2.13 2.77.86 4.85 1.96 6.29 3.23 1.58 1.39 3.13 3.06 4.64 5 1.4 1.8 2.4 3.98 3.01 6.59.61 2.66.93 5.69.93 9.11h3.36c0-3.63-.34-6.92-1.03-9.88-.7-3.01-1.91-5.66-3.63-7.88-1.62-2.09-3.31-3.91-5.07-5.47-1.92-1.68-4.43-2.96-7.51-3.92-2.96-.92-5.65-1.65-8.09-2.21-2.52-.57-5.8-.97-9.88-1.23-4.05-.26-7.53-.42-10.46-.48C306 .72 302.13.69 297.3.69h-24.7c-.86 0-1.56.024-2.14.094-.29.04-.56.08-.84.166-.14.04-.286.097-.45.178-.167.08-.36.19-.57.4-.21.21-.32.4-.4.57-.14.29-.2.52-.25.76-.08.36-.12.737-.145 1.17-.03.44-.04.936-.04 1.5v85.23c0 1.17.09 2.22.285 3.17.297 1.42.84 2.67 1.79 3.6.47.46 1.045.82 1.66 1.05.62.23 1.28.336 1.95.335.82.004 1.657-.22 2.35-.687.52-.35.945-.81 1.276-1.32.493-.78.8-1.68 1-2.69.193-1.02.282-2.16.282-3.45v-30.3h29.43l33.64 35.91 1.23-1.15-1.26 1.103c.72.81 1.52 1.47 2.43 1.93.91.45 1.91.69 2.92.69.61 0 1.21-.1 1.77-.32.57-.22 1.08-.56 1.51-.99.413-.42.753-.91.98-1.46.22-.55.32-1.14.32-1.73 0-.79-.18-1.58-.52-2.3s-.825-1.37-1.417-1.96l-1.19 1.19 1.22-1.16-31.36-32.95-1.22 1.16.08 1.67c3.63-.18 7.07-.52 10.32-1.04 3.31-.53 6.65-1.46 10.01-2.78 3.4-1.33 6.35-3.01 8.81-5.04 2.51-2.08 4.54-4.79 6.11-8.07 1.6-3.35 2.38-7.15 2.38-11.33h-1.68zM374.7 6.704l48.7 82.928 48.615-82.928c1.532-2.61 2.923-4 4.172-4.172.965 0 1.703.313 2.214.937.52.62.77 1.3.77 2.04s-.59 2.13-1.79 4.17l-49.63 84.63c-1.13 1.99-2.61 2.98-4.42 2.98-1.7 0-3.15-.99-4.34-2.98L369.17 9.68c-1.08-1.874-1.617-3.32-1.617-4.34 0-.626.25-1.25.762-1.875.51-.625 1.192-.938 2.044-.938.85.112 1.58.495 2.21 1.15.62.65 1.33 1.66 2.13 3.02"/><path d="M374.7 6.704l-1.45.85 50.15 85.398 50.064-85.398c.718-1.225 1.387-2.12 1.93-2.663.272-.27.51-.45.685-.55.17-.1.28-.13.33-.14l-.23-1.66v1.68c.3 0 .49.05.62.1.12.06.2.11.29.22l.01.02-.02-.02c.3.39.38.64.38.98h.19l-.19-.01v.01h.19l-.19-.01-.01.08c-.03.18-.17.6-.43 1.16-.26.56-.63 1.27-1.12 2.11l.01-.01-49.65 84.65v.01c-.48.83-.97 1.36-1.44 1.68-.48.32-.93.46-1.53.46-.53 0-.94-.13-1.42-.45-.47-.32-.99-.87-1.49-1.71v.01L370.6 8.86l.005.007c-.504-.877-.87-1.633-1.09-2.236-.228-.6-.3-1.05-.3-1.26.003-.15.046-.38.39-.81.11-.13.193-.19.29-.24.1-.04.228-.08.45-.08v-1.7l-.222 1.66c.483.08.82.24 1.226.65h-.01c.47.5 1.14 1.42 1.89 2.71l-.01-.01.01.02 1.45-.85 1.45-.85c-.84-1.43-1.59-2.52-2.37-3.33h-.01c-.84-.89-1.98-1.49-3.2-1.65l-.11-.01h-.11c-.63 0-1.27.12-1.85.39-.59.26-1.1.67-1.5 1.16-.69.82-1.15 1.84-1.15 2.93 0 .8.19 1.59.51 2.44.31.84.76 1.75 1.33 2.74l49.82 84.65v.01c.68 1.14 1.49 2.08 2.47 2.75.97.68 2.13 1.05 3.31 1.04 1.21.01 2.4-.35 3.4-1.03s1.81-1.63 2.48-2.79l-1.46-.83 1.45.85 49.65-84.64-.01.01c.62-1.06 1.09-1.97 1.43-2.76.17-.4.31-.76.41-1.13.1-.36.17-.72.18-1.13.01-1.13-.43-2.24-1.15-3.1l-.02-.02.01.02c-.42-.51-.97-.92-1.58-1.18-.61-.26-1.27-.37-1.93-.37h-.12l-.11.01c-.58.08-1.11.29-1.59.58-.73.43-1.36 1.03-1.98 1.76-.62.73-1.22 1.61-1.83 2.65l-47.1 80.42-47.25-80.46v.01l-1.45.85m210.47 87.61c0 .46-.03.85-.08 1.19-.06.34-.21.63-.47.85-.25.23-.45.4-.59.51-.14.12-.44.2-.89.26s-.78.1-.98.13c-.2.03-.62.05-1.27.05h-80.84c-1.08 0-1.72-.15-1.91-.47-.19-.31-.29-1.15-.29-2.51V4.37c0-.31.1-.68.3-1.11.2-.427.51-.67.94-.726.43-.05 1.07-.08 1.92-.08h80.54c.4 0 .69.03.86.09.17.06.41.12.73.17.31.06.54.15.68.26.14.12.31.24.51.39.2.15.34.32.42.51.09.2.16.43.21.68.06.26.09.56.09.9 0 .85-.3 1.48-.89 1.87-.59.4-1.22.63-1.87.68-.66.06-1.66.09-3.02.09H505.1v37.29h73.22c2.95 0 4.43.91 4.43 2.73 0 2.04-1.28 3.07-3.837 3.07h-73.82V91.7h74.32c1.368 0 2.37.03 3.03.083.654.057 1.28.285 1.876.68.6.4.89 1.023.89 1.874"/><path d="M585.167 94.314h-1.68c0 .383-.025.693-.063.92l.002-.006v-.002l.192.033-.168-.1-.024.06.192.03-.168-.1.216.12-.165-.19-.05.06.22.12-.16-.19c-.24.21-.42.37-.53.45l.66.81-.43-.95c-.04.02-.11.05-.22.14l.66.81-.43-.96.16.35-.12-.38-.04.02.16.36-.12-.38s-.12.03-.31.05c-.46.06-.79.1-1 .13h-.01l.03.16-.02-.16.03.16-.02-.16c-.01 0-.14.01-.32.01-.18.01-.42.01-.71.01h-80.85c-.45 0-.78-.04-.89-.07l-.03-.01-.2.55.33-.48-.13-.07-.2.54.33-.47-.63.91.94-.6c-.11-.16-.22-.27-.3-.32l-.64.91.94-.6v-.01l-.73.47.81-.32-.08-.15-.73.47.81-.32-.27.11.28-.09v-.02l-.28.11.28-.09-.03-.14c-.05-.27-.09-.85-.09-1.64V4.36h-.1l.1.003v-.01h-.1.1c0-.01.03-.16.14-.41l-.01.02.01-.03-.01-.01.02.01-.02-.01.02.01-.4-.24.26.38.15-.14-.4-.24.25.38-.28-.43.07.51.22-.08-.28-.43.07.513h-.01c.29-.04.89-.07 1.7-.07h80.54c.16 0 .28.01.35.01l.05.01.1-.51-.16.493.07.02.1-.52-.16.5-.01-.01h-.01c.3.1.6.17.97.23h-.01l.09.02.02.01.1-.3-.14.27.04.02.1-.29-.14.27.39-.76-.53.66.14.1.39-.76-.53.66c.18.14.37.29.6.45l-.01-.01.26-.37-.4.17c.047.11.13.19.14.2l.267-.37-.41.17v.01c.03.08.08.21.11.38.02.1.05.28.05.53 0 .23-.04.34-.06.38l-.09.09c-.39.26-.73.37-1.09.41-.55.05-1.54.08-2.87.08h-75.9V47h74.9c.653 0 1.19.05 1.6.136.624.13.91.325 1.004.425l.098.15c.03.07.05.17.05.34 0 .34-.05.56-.11.7-.04.11-.09.17-.15.23-.08.09-.23.2-.54.3-.3.1-.76.17-1.35.17h-75.5v43.88h76c1.34 0 2.32.03 2.88.08.36.03.7.15 1.09.41v-.01h.01l.09.09c.02.04.06.15.06.38h3.36c0-.62-.11-1.25-.39-1.83-.27-.59-.72-1.09-1.25-1.44l-.01-.01h.01c-.79-.54-1.71-.88-2.65-.96-.74-.06-1.77-.09-3.16-.09H506.8V52.83h72.14c.75 0 1.45-.074 2.11-.25.98-.257 1.9-.787 2.53-1.62.63-.833.88-1.86.88-2.88 0-.68-.14-1.372-.48-1.99-.25-.46-.6-.867-1.01-1.186-.61-.48-1.32-.773-2.09-.96-.76-.18-1.6-.26-2.53-.26H506.8V9.747h72.47c1.39 0 2.42-.026 3.17-.09h-.006c.95-.08 1.866-.422 2.665-.96l-.02.013.01-.01c.53-.35.98-.86 1.25-1.44.28-.588.39-1.217.39-1.837 0-.436-.04-.85-.13-1.257-.08-.338-.18-.665-.31-.982l-.01-.02.01.023c-.21-.503-.59-.927-.99-1.214l-.01-.007v-.002c-.18-.122-.32-.23-.43-.317l-.01-.007c-.52-.39-.97-.5-1.43-.594h-.01c-.26-.047-.45-.095-.49-.11l-.01-.002h-.01c-.27-.086-.48-.116-.7-.14-.22-.02-.44-.03-.68-.03h-80.55c-.9 0-1.58.03-2.14.1h-.01c-.47.06-.96.25-1.36.56-.4.31-.69.712-.88 1.12V2.54c-.26.57-.45 1.15-.45 1.82v89.95c0 .73.02 1.33.08 1.85.03.26.07.51.13.75.07.25.15.51.34.82v.004c.24.37.55.613.83.77.43.234.82.325 1.22.39.4.064.82.087 1.29.087h80.84c.34 0 .62 0 .87-.01s.43-.01.66-.05h-.01c.18-.02.5-.06.95-.12h-.01c.29-.03.55-.08.82-.16.27-.08.56-.17.92-.45l.06-.05-.06.05c.18-.14.39-.33.67-.57l-.01.01c.54-.46.91-1.15 1.02-1.83v-.01c.07-.45.1-.93.1-1.46h-1.68m103.79 2.98h-76.9c-1.7 0-2.71-.14-3.02-.42-.31-.28-.47-1.19-.47-2.72V7.98c0-3.688 1.34-5.533 4-5.533 2.16 0 3.24 1.845 3.24 5.534v83.7h73.14c1.08 0 1.93.29 2.56.85.62.57.93 1.23.93 1.96 0 .8-.31 1.47-.94 2-.62.54-1.47.81-2.55.81"/><path d="M688.955 97.294v-1.68h-76.883c-.804 0-1.423-.036-1.8-.09-.186-.025-.31-.057-.342-.068l-.007-.002-.143.398.202-.37-.06-.028-.142.398.202-.37-.497.91.698-.764-.2-.146-.498.91.698-.764-.007-.006v.002l-.55.608.782-.307c-.004 0-.03-.112-.23-.3l-.552.607.782-.307c-.003 0-.06-.193-.09-.503-.035-.313-.057-.746-.056-1.278V7.98c0-.82.075-1.5.203-2.026.195-.8.476-1.206.752-1.436.143-.118.3-.206.516-.276.216-.07.494-.115.85-.115.302.003.46.058.582.126.093.053.18.124.286.263.16.205.35.582.48 1.165.14.59.22 1.36.22 2.3v85.38h74.82c.39 0 .69.06.92.13.23.08.38.17.51.29l.01.01-.01-.01c.18.17.27.3.32.4.05.11.07.19.07.32 0 .18-.03.29-.07.39-.05.1-.12.21-.28.35-.13.12-.28.21-.52.28-.23.08-.54.13-.94.13V99c.68 0 1.34-.084 1.96-.28.62-.196 1.21-.51 1.7-.94l-.03.023.03-.024c.47-.4.86-.9 1.13-1.47.27-.57.4-1.19.39-1.81 0-.61-.13-1.22-.4-1.77-.26-.55-.64-1.03-1.08-1.43l.01.01-.01-.02c-.49-.44-1.07-.78-1.7-.99-.62-.21-1.29-.3-1.97-.3h-71.5V7.98c0-1.003-.07-1.912-.23-2.74-.24-1.237-.68-2.336-1.5-3.187-.41-.42-.91-.76-1.46-.974-.55-.22-1.14-.32-1.72-.32-.86 0-1.7.15-2.46.5-1.15.52-2.04 1.51-2.53 2.67-.5 1.17-.7 2.5-.7 4.04v86.17c0 .82.04 1.51.14 2.11.05.3.12.59.24.89.12.29.28.63.64.96l-.01-.01c.36.32.68.44.98.54.44.14.88.2 1.4.25.51.05 1.09.07 1.77.07h76.88v-1.68"/></g></g></svg>
